<svg id="Capa_1" data-name="Capa 1" xmlns="http://www.w3.org/2000/svg" xmlns:xlink="http://www.w3.org/1999/xlink" viewBox="0 0 460.9 333.9"><defs><style>.cls-1{fill:url(#Degradado_sin_nombre_61);}.cls-2{fill:url(#Degradado_sin_nombre_85);}.cls-3{fill:url(#Degradado_sin_nombre_76);}.cls-4{fill:url(#Degradado_sin_nombre_61-2);}.cls-5{fill:url(#Degradado_sin_nombre_108);}.cls-6{fill:url(#Degradado_sin_nombre_105);}.cls-7{fill:url(#Degradado_sin_nombre_435);}.cls-8{fill:url(#Degradado_sin_nombre_76-2);}.cls-9{fill:url(#Degradado_sin_nombre_76-3);}.cls-10{fill:url(#Degradado_sin_nombre_85-2);}.cls-11{fill:url(#Degradado_sin_nombre_72);}.cls-12{fill:url(#Degradado_sin_nombre_85-3);}.cls-13{fill:url(#Degradado_sin_nombre_72-2);}.cls-14{fill:url(#Degradado_sin_nombre_76-4);}.cls-15{fill:url(#Degradado_sin_nombre_76-5);}.cls-16{fill:url(#Degradado_sin_nombre_108-2);}.cls-17{fill:url(#Degradado_sin_nombre_105-2);}.cls-18{fill:url(#Degradado_sin_nombre_435-2);}.cls-19{fill:url(#Degradado_sin_nombre_108-3);}.cls-20{fill:url(#Degradado_sin_nombre_435-3);}.cls-21{fill:url(#Degradado_sin_nombre_105-3);}.cls-22,.cls-23,.cls-24,.cls-25,.cls-26,.cls-27,.cls-28,.cls-29,.cls-30,.cls-31,.cls-32,.cls-33,.cls-34,.cls-35,.cls-36,.cls-37,.cls-38,.cls-39,.cls-40,.cls-41,.cls-42,.cls-43,.cls-44,.cls-45,.cls-46,.cls-47,.cls-48,.cls-49,.cls-50,.cls-51,.cls-52,.cls-53,.cls-54,.cls-55,.cls-56,.cls-57,.cls-58,.cls-59,.cls-60,.cls-61,.cls-62,.cls-63,.cls-64,.cls-65,.cls-66,.cls-67,.cls-68,.cls-69,.cls-70,.cls-71{fill:none;stroke-miterlimit:10;}.cls-22{stroke:url(#Degradado_sin_nombre_105-4);}.cls-23{stroke:url(#Degradado_sin_nombre_105-5);}.cls-24{stroke:url(#Degradado_sin_nombre_105-6);}.cls-25{stroke:url(#Degradado_sin_nombre_105-7);}.cls-26{stroke:url(#Degradado_sin_nombre_105-8);}.cls-27{stroke:url(#Degradado_sin_nombre_105-9);}.cls-28{stroke:url(#Degradado_sin_nombre_105-10);}.cls-29{stroke:url(#Degradado_sin_nombre_105-11);}.cls-30{stroke:url(#Degradado_sin_nombre_105-12);}.cls-31{stroke:url(#Degradado_sin_nombre_105-13);}.cls-32{stroke:url(#Degradado_sin_nombre_105-14);}.cls-33{stroke:url(#Degradado_sin_nombre_105-15);}.cls-34{stroke:url(#Degradado_sin_nombre_105-16);}.cls-35{stroke:url(#Degradado_sin_nombre_105-17);}.cls-36{stroke:url(#Degradado_sin_nombre_105-18);}.cls-37{stroke:url(#Degradado_sin_nombre_105-19);}.cls-38{stroke:url(#Degradado_sin_nombre_105-20);}.cls-39{stroke:url(#Degradado_sin_nombre_105-21);}.cls-40{stroke:url(#Degradado_sin_nombre_105-22);}.cls-41{stroke:url(#Degradado_sin_nombre_105-23);}.cls-42{stroke:url(#Degradado_sin_nombre_105-24);}.cls-43{stroke:url(#Degradado_sin_nombre_105-25);}.cls-44{stroke:url(#Degradado_sin_nombre_105-26);}.cls-45{stroke:url(#Degradado_sin_nombre_105-27);}.cls-46{stroke:url(#Degradado_sin_nombre_105-28);}.cls-47{stroke:url(#Degradado_sin_nombre_105-29);}.cls-48{stroke:url(#Degradado_sin_nombre_105-30);}.cls-49{stroke:url(#Degradado_sin_nombre_105-31);}.cls-50{stroke:url(#Degradado_sin_nombre_105-32);}.cls-51{stroke:url(#Degradado_sin_nombre_105-33);}.cls-52{stroke:url(#Degradado_sin_nombre_105-34);}.cls-53{stroke:url(#Degradado_sin_nombre_105-35);}.cls-54{stroke:url(#Degradado_sin_nombre_105-36);}.cls-55{stroke:url(#Degradado_sin_nombre_105-37);}.cls-56{stroke:url(#Degradado_sin_nombre_105-38);}.cls-57{stroke:url(#Degradado_sin_nombre_105-39);}.cls-58{stroke:url(#Degradado_sin_nombre_105-40);}.cls-59{stroke:url(#Degradado_sin_nombre_105-41);}.cls-60{stroke:url(#Degradado_sin_nombre_105-42);}.cls-61{stroke:url(#Degradado_sin_nombre_105-43);}.cls-62{stroke:url(#Degradado_sin_nombre_105-44);}.cls-63{stroke:url(#Degradado_sin_nombre_105-45);}.cls-64{stroke:url(#Degradado_sin_nombre_105-46);}.cls-65{stroke:url(#Degradado_sin_nombre_105-47);}.cls-66{stroke:url(#Degradado_sin_nombre_105-48);}.cls-67{stroke:url(#Degradado_sin_nombre_105-49);}.cls-68{stroke:url(#Degradado_sin_nombre_105-50);}.cls-69{stroke:url(#Degradado_sin_nombre_105-51);}.cls-70{stroke:url(#Degradado_sin_nombre_105-52);}.cls-71{stroke:url(#Degradado_sin_nombre_105-53);}.cls-72{fill:#385f6f;}.cls-73{fill:#fff;}.cls-74{fill:#ef7d19;}</style><linearGradient id="Degradado_sin_nombre_61" x1="338.3" y1="152.76" x2="392.48" y2="152.76" gradientUnits="userSpaceOnUse"><stop offset="0" stop-color="#fabf6c"/><stop offset="0.45" stop-color="#fabe6a"/><stop offset="0.61" stop-color="#f9b963"/><stop offset="0.72" stop-color="#f7b058"/><stop offset="0.82" stop-color="#f4a447"/><stop offset="0.89" stop-color="#f09431"/><stop offset="0.96" stop-color="#ec8116"/><stop offset="1" stop-color="#e97505"/></linearGradient><linearGradient id="Degradado_sin_nombre_85" x1="175.75" y1="145.95" x2="460.91" y2="145.95" gradientUnits="userSpaceOnUse"><stop offset="0" stop-color="#ffe8be"/><stop offset="0.26" stop-color="#ffe4ad"/><stop offset="0.79" stop-color="#ffdb80"/><stop offset="1" stop-color="#ffd76c"/></linearGradient><linearGradient id="Degradado_sin_nombre_76" x1="175.75" y1="210.08" x2="392.83" y2="210.08" gradientUnits="userSpaceOnUse"><stop offset="0" stop-color="#fabf6c"/><stop offset="0.37" stop-color="#f3aa41"/><stop offset="0.79" stop-color="#ec9517"/><stop offset="1" stop-color="#e98d07"/></linearGradient><linearGradient id="Degradado_sin_nombre_61-2" x1="392.48" y1="234.53" x2="460.91" y2="234.53" xlink:href="#Degradado_sin_nombre_61"/><linearGradient id="Degradado_sin_nombre_108" x1="27.09" y1="163.65" x2="203.19" y2="163.65" gradientUnits="userSpaceOnUse"><stop offset="0" stop-color="#acdced"/><stop offset="0.13" stop-color="#b8e0ec"/><stop offset="0.38" stop-color="#c9e6ea"/><stop offset="0.65" stop-color="#d3eae9"/><stop offset="1" stop-color="#d6ebe9"/></linearGradient><linearGradient id="Degradado_sin_nombre_105" x1="47.41" y1="280.85" x2="47.41" y2="179.13" gradientUnits="userSpaceOnUse"><stop offset="0" stop-color="#acdced"/><stop offset="0.91" stop-color="#78c8d4"/><stop offset="1" stop-color="#73c6d1"/></linearGradient><linearGradient id="Degradado_sin_nombre_435" x1="135.46" y1="280.85" x2="135.46" y2="148.17" gradientUnits="userSpaceOnUse"><stop offset="0" stop-color="#acdced"/><stop offset="0.5" stop-color="#aadbec"/><stop offset="0.68" stop-color="#a3d9e9"/><stop offset="0.81" stop-color="#98d4e3"/><stop offset="0.92" stop-color="#87cedb"/><stop offset="1" stop-color="#73c6d1"/></linearGradient><linearGradient id="Degradado_sin_nombre_76-2" x1="149.01" y1="243.26" x2="189.64" y2="243.26" xlink:href="#Degradado_sin_nombre_76"/><linearGradient id="Degradado_sin_nombre_76-3" x1="121.33" y1="265.37" x2="162.55" y2="265.37" xlink:href="#Degradado_sin_nombre_76"/><linearGradient id="Degradado_sin_nombre_85-2" x1="0" y1="218.83" x2="162.55" y2="218.83" xlink:href="#Degradado_sin_nombre_85"/><linearGradient id="Degradado_sin_nombre_72" y1="265.37" x2="121.91" y2="265.37" gradientUnits="userSpaceOnUse"><stop offset="0" stop-color="#fabf6c"/><stop offset="1" stop-color="#f7b35b"/></linearGradient><linearGradient id="Degradado_sin_nombre_85-3" x1="149.01" y1="179.13" x2="298.01" y2="179.13" xlink:href="#Degradado_sin_nombre_85"/><linearGradient id="Degradado_sin_nombre_72-2" x1="189.64" y1="243.26" x2="230.28" y2="243.26" xlink:href="#Degradado_sin_nombre_72"/><linearGradient id="Degradado_sin_nombre_76-4" x1="230.28" y1="243.26" x2="270.92" y2="243.26" xlink:href="#Degradado_sin_nombre_76"/><linearGradient id="Degradado_sin_nombre_76-5" x1="270.92" y1="245.47" x2="298.01" y2="245.47" xlink:href="#Degradado_sin_nombre_76"/><linearGradient id="Degradado_sin_nombre_108-2" x1="176.15" y1="229.99" x2="351.85" y2="229.99" xlink:href="#Degradado_sin_nombre_108"/><linearGradient id="Degradado_sin_nombre_105-2" x1="176.15" y1="280.85" x2="257.42" y2="280.85" xlink:href="#Degradado_sin_nombre_105"/><linearGradient id="Degradado_sin_nombre_435-2" x1="257.42" y1="278.7" x2="352.14" y2="278.7" xlink:href="#Degradado_sin_nombre_435"/><linearGradient id="Degradado_sin_nombre_108-3" x1="189.64" y1="88.49" x2="338.65" y2="88.49" xlink:href="#Degradado_sin_nombre_108"/><linearGradient id="Degradado_sin_nombre_435-3" x1="189.64" y1="25.43" x2="345.42" y2="25.43" xlink:href="#Degradado_sin_nombre_435"/><linearGradient id="Degradado_sin_nombre_105-3" x1="338.65" y1="111.71" x2="345.42" y2="111.71" xlink:href="#Degradado_sin_nombre_105"/><linearGradient id="Degradado_sin_nombre_105-4" x1="191.92" y1="136.5" x2="336.11" y2="136.5" xlink:href="#Degradado_sin_nombre_105"/><linearGradient id="Degradado_sin_nombre_105-5" x1="191.92" y1="112.56" x2="213.08" y2="112.56" xlink:href="#Degradado_sin_nombre_105"/><linearGradient id="Degradado_sin_nombre_105-6" x1="274.35" y1="139.33" x2="294.65" y2="139.33" xlink:href="#Degradado_sin_nombre_105"/><linearGradient id="Degradado_sin_nombre_105-7" x1="220.11" y1="134.9" x2="267.56" y2="134.9" xlink:href="#Degradado_sin_nombre_105"/><linearGradient id="Degradado_sin_nombre_105-8" x1="191.92" y1="117.09" x2="336.11" y2="117.09" xlink:href="#Degradado_sin_nombre_105"/><linearGradient id="Degradado_sin_nombre_105-9" x1="314.06" y1="143.74" x2="336.11" y2="143.74" xlink:href="#Degradado_sin_nombre_105"/><linearGradient id="Degradado_sin_nombre_105-10" x1="274.35" y1="123.71" x2="307.3" y2="123.71" xlink:href="#Degradado_sin_nombre_105"/><linearGradient id="Degradado_sin_nombre_105-11" x1="205.7" y1="108.26" x2="227.15" y2="108.26" xlink:href="#Degradado_sin_nombre_105"/><linearGradient id="Degradado_sin_nombre_105-12" x1="191.92" y1="92.78" x2="200.27" y2="92.78" xlink:href="#Degradado_sin_nombre_105"/><linearGradient id="Degradado_sin_nombre_105-13" x1="247.26" y1="121.66" x2="267.69" y2="121.66" xlink:href="#Degradado_sin_nombre_105"/><linearGradient id="Degradado_sin_nombre_105-14" x1="243.32" y1="130.48" x2="244.33" y2="130.48" xlink:href="#Degradado_sin_nombre_105"/><linearGradient id="Degradado_sin_nombre_105-15" x1="324.59" y1="157.09" x2="326.13" y2="157.09" xlink:href="#Degradado_sin_nombre_105"/><linearGradient id="Degradado_sin_nombre_105-16" x1="256.77" y1="126.08" x2="257.77" y2="126.08" xlink:href="#Degradado_sin_nombre_105"/><linearGradient id="Degradado_sin_nombre_105-17" x1="297.41" y1="130.51" x2="298.41" y2="130.51" xlink:href="#Degradado_sin_nombre_105"/><linearGradient id="Degradado_sin_nombre_105-18" x1="229.43" y1="117.26" x2="230.43" y2="117.26" xlink:href="#Degradado_sin_nombre_105"/><linearGradient id="Degradado_sin_nombre_105-19" x1="191.92" y1="101.11" x2="336.11" y2="101.11" xlink:href="#Degradado_sin_nombre_105"/><linearGradient id="Degradado_sin_nombre_105-20" x1="191.92" y1="77.17" x2="213.08" y2="77.17" xlink:href="#Degradado_sin_nombre_105"/><linearGradient id="Degradado_sin_nombre_105-21" x1="274.35" y1="103.95" x2="294.65" y2="103.95" xlink:href="#Degradado_sin_nombre_105"/><linearGradient id="Degradado_sin_nombre_105-22" x1="220.11" y1="99.52" x2="267.56" y2="99.52" xlink:href="#Degradado_sin_nombre_105"/><linearGradient id="Degradado_sin_nombre_105-23" x1="191.92" y1="81.71" x2="336.11" y2="81.71" xlink:href="#Degradado_sin_nombre_105"/><linearGradient id="Degradado_sin_nombre_105-24" x1="314.06" y1="108.35" x2="336.11" y2="108.35" xlink:href="#Degradado_sin_nombre_105"/><linearGradient id="Degradado_sin_nombre_105-25" x1="274.35" y1="88.32" x2="307.3" y2="88.32" xlink:href="#Degradado_sin_nombre_105"/><linearGradient id="Degradado_sin_nombre_105-26" x1="205.7" y1="72.88" x2="227.15" y2="72.88" xlink:href="#Degradado_sin_nombre_105"/><linearGradient id="Degradado_sin_nombre_105-27" x1="191.92" y1="57.39" x2="200.27" y2="57.39" xlink:href="#Degradado_sin_nombre_105"/><linearGradient id="Degradado_sin_nombre_105-28" x1="247.26" y1="86.28" x2="267.69" y2="86.28" xlink:href="#Degradado_sin_nombre_105"/><linearGradient id="Degradado_sin_nombre_105-29" x1="243.32" y1="95.09" x2="244.33" y2="95.09" xlink:href="#Degradado_sin_nombre_105"/><linearGradient id="Degradado_sin_nombre_105-30" x1="324.59" y1="121.71" x2="326.13" y2="121.71" xlink:href="#Degradado_sin_nombre_105"/><linearGradient id="Degradado_sin_nombre_105-31" x1="256.77" y1="90.7" x2="257.77" y2="90.7" xlink:href="#Degradado_sin_nombre_105"/><linearGradient id="Degradado_sin_nombre_105-32" x1="297.41" y1="95.12" x2="298.41" y2="95.12" xlink:href="#Degradado_sin_nombre_105"/><linearGradient id="Degradado_sin_nombre_105-33" x1="229.43" y1="81.88" x2="230.43" y2="81.88" xlink:href="#Degradado_sin_nombre_105"/><linearGradient id="Degradado_sin_nombre_105-34" x1="191.92" y1="56.49" x2="336.11" y2="56.49" xlink:href="#Degradado_sin_nombre_105"/><linearGradient id="Degradado_sin_nombre_105-35" x1="191.92" y1="32.55" x2="213.08" y2="32.55" xlink:href="#Degradado_sin_nombre_105"/><linearGradient id="Degradado_sin_nombre_105-36" x1="274.35" y1="59.33" x2="294.65" y2="59.33" xlink:href="#Degradado_sin_nombre_105"/><linearGradient id="Degradado_sin_nombre_105-37" x1="220.11" y1="54.89" x2="267.56" y2="54.89" xlink:href="#Degradado_sin_nombre_105"/><linearGradient id="Degradado_sin_nombre_105-38" x1="191.92" y1="37.08" x2="336.11" y2="37.08" xlink:href="#Degradado_sin_nombre_105"/><linearGradient id="Degradado_sin_nombre_105-39" x1="314.06" y1="63.73" x2="336.11" y2="63.73" xlink:href="#Degradado_sin_nombre_105"/><linearGradient id="Degradado_sin_nombre_105-40" x1="274.35" y1="43.7" x2="307.3" y2="43.7" xlink:href="#Degradado_sin_nombre_105"/><linearGradient id="Degradado_sin_nombre_105-41" x1="205.7" y1="28.25" x2="227.15" y2="28.25" xlink:href="#Degradado_sin_nombre_105"/><linearGradient id="Degradado_sin_nombre_105-42" x1="191.92" y1="12.77" x2="200.27" y2="12.77" xlink:href="#Degradado_sin_nombre_105"/><linearGradient id="Degradado_sin_nombre_105-43" x1="247.26" y1="41.65" x2="267.69" y2="41.65" xlink:href="#Degradado_sin_nombre_105"/><linearGradient id="Degradado_sin_nombre_105-44" x1="243.32" y1="50.47" x2="244.33" y2="50.47" xlink:href="#Degradado_sin_nombre_105"/><linearGradient id="Degradado_sin_nombre_105-45" x1="325.13" y1="81.73" x2="326.13" y2="81.73" xlink:href="#Degradado_sin_nombre_105"/><linearGradient id="Degradado_sin_nombre_105-46" x1="256.77" y1="46.08" x2="257.77" y2="46.08" xlink:href="#Degradado_sin_nombre_105"/><linearGradient id="Degradado_sin_nombre_105-47" x1="297.41" y1="50.5" x2="298.41" y2="50.5" xlink:href="#Degradado_sin_nombre_105"/><linearGradient id="Degradado_sin_nombre_105-48" x1="229.43" y1="37.26" x2="230.43" y2="37.26" xlink:href="#Degradado_sin_nombre_105"/><linearGradient id="Degradado_sin_nombre_105-49" x1="191.8" y1="55.48" x2="216.92" y2="55.48" xlink:href="#Degradado_sin_nombre_105"/><linearGradient id="Degradado_sin_nombre_105-50" x1="220.59" y1="55.44" x2="230.88" y2="55.44" xlink:href="#Degradado_sin_nombre_105"/><linearGradient id="Degradado_sin_nombre_105-51" x1="234.12" y1="68.98" x2="257.77" y2="68.98" xlink:href="#Degradado_sin_nombre_105"/><linearGradient id="Degradado_sin_nombre_105-52" x1="262.37" y1="73.16" x2="284.96" y2="73.16" xlink:href="#Degradado_sin_nombre_105"/><linearGradient id="Degradado_sin_nombre_105-53" x1="297.85" y1="83.42" x2="335.73" y2="83.42" xlink:href="#Degradado_sin_nombre_105"/></defs><polygon class="cls-1" points="338.3 139.3 392.5 121.6 392.5 168.1 339.7 183.9 338.3 139.3"/><polygon class="cls-2" points="175.7 130.5 297.7 90.7 392.5 121.6 338.3 139.3 460.9 179.4 392.5 201.2 175.7 130.5"/><polygon class="cls-3" points="392.5 201.2 392.8 289.7 175.7 218.8 175.7 130.5 392.5 201.2"/><polygon class="cls-4" points="392.5 201.2 460.9 179.4 460.6 267.6 392.8 289.7 392.5 201.2"/><polygon class="cls-5" points="27.1 179.1 67.7 192.4 203.2 148.2 162.6 134.9 27.1 179.1"/><polygon class="cls-6" points="27.1 179.1 27.1 267.6 67.7 280.9 67.7 192.4 27.1 179.1"/><polygon class="cls-7" points="203.2 148.2 203.2 236.6 67.7 280.9 67.7 192.4 203.2 148.2"/><polygon class="cls-8" points="149 183.5 189.6 196.8 189.6 303 149 289.7 149 183.5"/><polygon class="cls-9" points="162.6 205.7 162.6 311.8 121.9 325.1 121.3 218.9 162.6 205.7"/><polygon class="cls-10" points="0 205.7 121.6 245.6 162.6 232.2 121.9 218.9 162.6 205.7 121 192.1 81.3 205.7 39.7 192.1 0 205.7"/><polygon class="cls-11" points="0 205.7 121.6 245.6 121.9 325.1 0 285.3 0 205.7"/><polygon class="cls-12" points="149 183.5 189.6 196.8 230.3 183.5 270.9 196.8 298 188 216.7 161.4 149 183.5"/><polygon class="cls-13" points="230.3 183.5 230.3 289.7 189.6 303 189.6 196.8 230.3 183.5"/><polygon class="cls-14" points="230.3 183.5 270.9 196.8 270.9 303 230.3 289.7 230.3 183.5"/><polygon class="cls-15" points="270.9 196.8 298 188 298 294.1 270.9 303 270.9 196.8"/><polygon class="cls-16" points="257.4 254.3 351.9 223.5 311.6 210.1 284.5 218.9 243.9 205.7 176.1 227.8 257.4 254.3"/><polygon class="cls-17" points="176.1 227.8 176.1 307.4 257.4 333.9 257.4 254.3 176.1 227.8"/><polygon class="cls-18" points="257.4 254.3 351.9 223.5 352.1 302.9 257.4 333.9 257.4 254.3"/><polygon class="cls-19" points="189.6 125.9 189.6 2.2 338.6 50.9 338.6 174.8 189.6 125.9"/><polygon class="cls-20" points="189.6 2.2 196.4 0 345.4 48.7 338.6 50.9 189.6 2.2"/><polygon class="cls-21" points="338.6 50.9 345.4 48.7 345.4 172.5 338.6 174.8 338.6 50.9"/><polyline class="cls-22" points="192.1 118 216.8 126.1 216.8 117.1 270.9 134.9 270.9 143.7 298 152.8 298 143.7 336 156.1"/><line class="cls-23" x1="192.1" y1="109.2" x2="212.9" y2="116"/><line class="cls-24" x1="274.5" y1="136.1" x2="294.5" y2="142.6"/><line class="cls-25" x1="220.3" y1="127.2" x2="267.4" y2="142.6"/><polyline class="cls-26" points="192.1 100.3 203.2 103.9 202.5 94.9 230.3 103.9 229.9 112.8 243.8 117.2 243.5 108.4 270.9 117.1 270.9 126.1 311.6 139.3 311.6 130.5 336 138.4"/><line class="cls-27" x1="314.2" y1="140.2" x2="336" y2="147.3"/><line class="cls-28" x1="274.5" y1="118.4" x2="307.1" y2="129"/><line class="cls-29" x1="205.9" y1="104.8" x2="227" y2="111.7"/><line class="cls-30" x1="192.1" y1="91.5" x2="200.1" y2="94.1"/><line class="cls-31" x1="247.4" y1="118.4" x2="267.5" y2="124.9"/><line class="cls-32" x1="243.8" y1="126.1" x2="243.8" y2="134.9"/><line class="cls-33" x1="325.1" y1="161.4" x2="325.6" y2="152.8"/><line class="cls-34" x1="257.3" y1="121.7" x2="257.3" y2="130.5"/><line class="cls-35" x1="297.9" y1="126.1" x2="297.9" y2="134.9"/><line class="cls-36" x1="229.9" y1="112.8" x2="229.9" y2="121.7"/><polyline class="cls-37" points="192.1 82.6 216.8 90.7 216.8 81.7 270.9 99.5 270.9 108.4 298 117.4 298 108.4 336 120.7"/><line class="cls-38" x1="192.1" y1="73.8" x2="212.9" y2="80.6"/><line class="cls-39" x1="274.5" y1="100.7" x2="294.5" y2="107.2"/><line class="cls-40" x1="220.3" y1="91.8" x2="267.4" y2="107.2"/><polyline class="cls-41" points="192.1 64.9 203.2 68.6 202.5 59.5 230.3 68.6 229.9 77.4 243.8 81.8 243.5 73 270.9 81.7 270.9 90.7 311.6 103.9 311.6 95.1 336 103.1"/><line class="cls-42" x1="314.2" y1="104.8" x2="336" y2="111.9"/><line class="cls-43" x1="274.5" y1="83" x2="307.1" y2="93.7"/><line class="cls-44" x1="205.9" y1="69.4" x2="227" y2="76.3"/><line class="cls-45" x1="192.1" y1="56.1" x2="200.1" y2="58.7"/><line class="cls-46" x1="247.4" y1="83" x2="267.5" y2="89.6"/><line class="cls-47" x1="243.8" y1="90.7" x2="243.8" y2="99.5"/><line class="cls-48" x1="325.1" y1="126" x2="325.6" y2="117.4"/><line class="cls-49" x1="257.3" y1="86.3" x2="257.3" y2="95.1"/><line class="cls-50" x1="297.9" y1="90.7" x2="297.9" y2="99.5"/><line class="cls-51" x1="229.9" y1="77.4" x2="229.9" y2="86.4"/><polyline class="cls-52" points="192.1 38 216.8 46.1 216.8 37.1 270.9 54.9 270.9 63.7 298 72.8 298 63.7 336 76.1"/><line class="cls-53" x1="192.1" y1="29.1" x2="212.9" y2="36"/><line class="cls-54" x1="274.5" y1="56.1" x2="294.5" y2="62.6"/><line class="cls-55" x1="220.3" y1="47.2" x2="267.4" y2="62.6"/><polyline class="cls-56" points="192.1 20.3 203.2 23.9 202.5 14.9 230.3 23.9 229.9 32.8 243.8 37.2 243.5 28.4 270.9 37.1 270.9 46 311.6 59.3 311.6 50.5 336 58.4"/><line class="cls-57" x1="314.2" y1="60.2" x2="336" y2="67.3"/><line class="cls-58" x1="274.5" y1="38.4" x2="307.1" y2="49"/><line class="cls-59" x1="205.9" y1="24.8" x2="227" y2="31.7"/><line class="cls-60" x1="192.1" y1="11.5" x2="200.1" y2="14.1"/><line class="cls-61" x1="247.4" y1="38.4" x2="267.5" y2="44.9"/><line class="cls-62" x1="243.8" y1="46" x2="243.8" y2="54.9"/><line class="cls-63" x1="325.6" y1="90.7" x2="325.6" y2="72.8"/><line class="cls-64" x1="257.3" y1="41.7" x2="257.3" y2="50.5"/><line class="cls-65" x1="297.9" y1="46.1" x2="297.9" y2="54.9"/><line class="cls-66" x1="229.9" y1="32.8" x2="229.9" y2="41.7"/><polyline class="cls-67" points="192 47.2 216.4 55.3 216.4 64.2"/><polyline class="cls-68" points="220.8 56.6 229.9 59.7 230.4 50.5"/><polyline class="cls-69" points="234.3 61 257.3 68.5 257.3 77.4"/><polyline class="cls-70" points="262.5 70.2 284.3 77.4 284.5 68.2"/><polyline class="cls-71" points="298 72.8 310.9 77.2 310.9 86 335.6 94.1"/><path class="cls-72" d="M203.3,99.9a108.6,108.6,0,0,0,26.2-21.5,105.2,105.2,0,0,0,21.7-37.1,107.5,107.5,0,0,0,4.2-16c.1-.7-1.1-1.1-1.2-.3a108.7,108.7,0,0,1-37.9,64.4,106.1,106.1,0,0,1-13.6,9.4c-.7.4-.1,1.5.6,1.1Z"/><path class="cls-72" d="M270.6,142.6a183.8,183.8,0,0,0,44.9-67.7,164,164,0,0,0,5.8-18,.6.6,0,1,0-1.2-.3,182.6,182.6,0,0,1-36.7,70.5,189.2,189.2,0,0,1-13.7,14.6c-.6.6.3,1.4.9.9Z"/><path class="cls-73" d="M184.5,158.6c-2.2-1-4.4-2.1-6.5-3.3Z"/><path class="cls-73" d="M207.4,186.9a30.5,30.5,0,0,1-11.6,1.3,3.8,3.8,0,0,1-2.3-.6,1.8,1.8,0,0,1-.6-2.1c.2-.4.7-.7,1-1.1a2.7,2.7,0,0,0,.1-1.8l-3-19.1a3.9,3.9,0,0,0-.6-1.8,4.8,4.8,0,0,0-2.3-1.6,22.8,22.8,0,0,1-3.6-1.5l-6.5-3.3c2.1,1.2,4.3,2.3,6.5,3.3l3.1,1.6a101.3,101.3,0,0,1-.6,22.1,1.5,1.5,0,0,0,.5,1.2,1.8,1.8,0,0,0,1,.4l4.7.5a2.9,2.9,0,0,0-.6,2.2,46.6,46.6,0,0,1-8.2,1.3h-.6c-.8-.3-.3-1.5,0-2.3s-.5-4.2-1.3-6.2c-1.8-4.5-.6-9.5-.4-14.4a1.7,1.7,0,0,0-1.4-2l-7.9-3.3a18.4,18.4,0,0,1-6.1-3.5c-3.3-3.3-3.7-8.3-3.9-12.9-.2-6.7-.7-12.2.9-18.6l.3-.7a12.9,12.9,0,0,1,6.4-4.8c-1.1-2.3-2-5-1.4-7.5s3.2-4.8,5.7-4.1a5.3,5.3,0,0,1,3.4,4.1,13,13,0,0,1-.6,5.5,4.3,4.3,0,0,0-.2,2.5,35.8,35.8,0,0,0,3.5-.9,73.1,73.1,0,0,1,10-3.3,6.6,6.6,0,0,0,2-.6,4.4,4.4,0,0,0,1.4-1.3c2.4-2.6,5-5.4,5.6-8.9a17.5,17.5,0,0,1,.6-3.3c.5-1.5,1.7-2.4,2.6-2l.3-1.2a2.1,2.1,0,0,1,2.4-1.1c1,.5,1.1,1.9.9,3.1a99,99,0,0,1-3.8,17.8,4.6,4.6,0,0,1-.8,1.9,5.4,5.4,0,0,1-2.3,1.5l-13.5,6.2-1.6,1a4.6,4.6,0,0,0-1.1,1.6c-1.1,2.3-1.2,4.9-1.3,7.5l-.3,7.2a8.1,8.1,0,0,0,.1,2.2,6.6,6.6,0,0,0,1.7,2.4c3.8,3.6,9.2,4.8,14,7a1.9,1.9,0,0,1,1.1.9,2,2,0,0,1,.3,1.1A154.8,154.8,0,0,1,198,182c0,.5-.1,1.2.4,1.6s.7.4,1.1.5A22.7,22.7,0,0,1,207.4,186.9Z"/><path class="cls-73" d="M270.8,142.2a1.8,1.8,0,0,0-1.8-1.3c-.7.1-1.2.9-1.4,1.7s-3.7,1.9-4.2,3.1a8.6,8.6,0,0,1-1.1,1.9,4.6,4.6,0,0,1-1.6,1.1,43.9,43.9,0,0,0-8.4,4.9c-1.2.9-2.2,1.9-3.4,2.7a4.1,4.1,0,0,0-3.9,0c-1.6,1.1-2,3.4-1.8,5.4l-.2-.3c-4.1,2.7-7.6,7.2-6.9,12.1.2,1.2.6,2.4.9,3.6.9,3.5.4,7.1-.1,10.7-1.2,7.8-2.5,16-.5,23.7.9,3.3,2.4,6.5,2.7,10s-.6,7.2-.9,10.9a48.4,48.4,0,0,0,1,11.4c4.1-.2,8.2-.4,12.1-1.7a56.8,56.8,0,0,0-9.2-1.4c.4-5.8,2.2-11.4,2.8-17.1a63.3,63.3,0,0,0,.3-9.7c0-4.2,0-8.3-.1-12.4v-1.2a26,26,0,0,0,7.3,15.1c.2.3.5.5.6.8v.7a164.6,164.6,0,0,0-1.7,25.3,1.8,1.8,0,0,0,.4,1.4,1.9,1.9,0,0,0,1.5.2l5.8-.8a15.7,15.7,0,0,0,5.6-1.6c.4-.2.8-.9.4-1.2h-.4l-9.3-1.4c1.6-8.1,4.2-16.1,4.9-24.4a9.5,9.5,0,0,0-.2-3.4l-.2-.2a43.3,43.3,0,0,1-6.7-30.3,11.1,11.1,0,0,1,.7-2.6,10.6,10.6,0,0,1,1.2-2,84.9,84.9,0,0,1,8.5-10.5c.4-.5.9-1,1.3-1.6l.6-1.5c1.3-4.4,2.7-8.9,4.1-13.3.4-1.5.9-2.9,1.2-4.4A5.9,5.9,0,0,0,270.8,142.2Zm-6.3,12.5a118,118,0,0,1-7.9,10.7,10.9,10.9,0,0,1-2.6,2.2,2.9,2.9,0,0,1-3.2-.4,3.1,3.1,0,0,1-.6-2.8c.2-1,.6-1.9.8-2.8a7.6,7.6,0,0,0,.1-1.5c1.7-.5,2.9-1.9,4.7-3.7l2.6-2.4,5.6-5a10.1,10.1,0,0,1,2.4-1.8h1.3A18.2,18.2,0,0,1,264.5,154.7Z"/><path class="cls-73" d="M88.3,106.4c0,.9-1,1.4-1.8,1.5s-1.7-.1-2.6,0a9,9,0,0,0-3.8,2.1,25.4,25.4,0,0,1-5.4,2.9c-1.9,2.1-3.9,3.9-7.2,4.1a13.9,13.9,0,0,1-3.5-.4,38.9,38.9,0,0,1-7.8-2c-.4,2-1.7,3.8-2.5,5.7-2.1,4.8-1.1,10.4,1.2,15s5.8,8.6,8.6,12.9a13.5,13.5,0,0,1,1.9,3.8,20.2,20.2,0,0,1,.5,4.3c.3,2.4,1.1,4.7,1.5,7.1.7,4.8-.6,9.9.4,14.7a1.9,1.9,0,0,0,.4.9,1.7,1.7,0,0,0,1.2.4,31.1,31.1,0,0,1,6.7,1.6c.5.1,1.1.4,1,.9s-.7.7-1.3.7l-9.7.3c-.4,0-.9,0-1.1-.4s-.2-.4-.2-.6c-.5-6-6-10.7-6.3-16.7-.1-3.5,1.6-6.9,1.6-10.5a67.5,67.5,0,0,1-10-10l-.8-1.3L45,137.5q2.4,3.8,5.1,7.2c2.2,3.8,3.6,7.9,2.8,12.3a106.7,106.7,0,0,0-2.1,19.5,66.9,66.9,0,0,1,7.7,2c.7.3,1.6,1,1.1,1.6a1.1,1.1,0,0,1-.8.3,61.7,61.7,0,0,1-9.6.4c-.6,0-1.4-.1-1.6-.7a1.7,1.7,0,0,1,.1-1c.5-1.7,0-3.5-.4-5.3a50.1,50.1,0,0,1-.5-18.9,2.6,2.6,0,0,0,0-1.5,2.3,2.3,0,0,0-.7-1c-2.2-2.3-3.6-5.2-5.1-8-2.8-5.7-5.6-12-3.9-18.1.6-2.3,1.9-4.3,2.7-6.6a30.6,30.6,0,0,0,1.4-9.6c.1-2,.2-4.2,1.6-5.6s4.9-1.8,5.8-4h-.3c-.9-2.4-1.5-5-.6-7.3s3.9-4.1,6-2.8a4.5,4.5,0,0,1,2.1,3.7,9.4,9.4,0,0,1-1,4.3c-.6,1.1-1.1,2.7-.1,3.6a3.8,3.8,0,0,0,1.5.5c4.5,1.1,7.2,6,11.7,7.1,2.8.7,5.8-.2,8.4-1.5h0a11.3,11.3,0,0,1,2.4-3c1.3-.9,3.7-.9,3.5.4a9.8,9.8,0,0,1,3.4-.7C86.8,104.8,88.3,105.3,88.3,106.4Z"/><path class="cls-74" d="M139.9,125.7a2.4,2.4,0,0,1-.6.8l-11.2,11.7a11.8,11.8,0,0,1-2.2,1.7,5.6,5.6,0,0,1-2.5.5c-4.9.2-9.8-1.1-14.7-1.9a1.9,1.9,0,0,0-1.3,0,2.3,2.3,0,0,0-.8.9c-4.8,8-8.5,17.6-5.8,26.5,1.2,3.9,3.6,7.4,4.4,11.4s.4,7.3-.1,10.9c-.6,5.1-1.3,10.1-1.9,15.2a2.2,2.2,0,0,0,.1,1.4,2,2,0,0,0,1.6.9,26.2,26.2,0,0,1,7.2,3.3,44.9,44.9,0,0,1-11,.4c-1.4-.2-3.2-.8-3.3-2.2a7.4,7.4,0,0,1,.7-2.1,5.4,5.4,0,0,0-.2-2.8,32.9,32.9,0,0,1,1-18.9,5.4,5.4,0,0,0,.4-2.2,4.4,4.4,0,0,0-.7-1.9c-2.6-4.6-6.2-9-7-14.1h0v-1.2a5.7,5.7,0,0,0,.1,1.3c-.7,3.5.7,6.9,1.3,10.4,1.7,9.2-1.3,18.8-.6,28.2a48.8,48.8,0,0,0,5.4,1.8l-.8,2.1a24.7,24.7,0,0,1-6,.8c-.8-.1-1.9-.3-2-1.1a2,2,0,0,1,.2-1.1c.9-2.7-1.2-5.3-2.2-7.9-1.9-4.7,0-9.9.5-15a10.3,10.3,0,0,0-.1-1.7,6.5,6.5,0,0,0-.9-2.3,41.5,41.5,0,0,1-4.2-13.2,23.7,23.7,0,0,1,.7-10.9c1.8-4.5,5.7-8.1,7.1-12.8.9-2.7.9-5.7,1.7-8.4s3-5.5,5.9-5.5h-.3c1.6.3,2.8-1.5,2.9-3.2s-.3-3.3.2-4.8a4.4,4.4,0,1,1,8.1,3.2,25.5,25.5,0,0,1-2.1,2.8,5.1,5.1,0,0,0-.7,2.4c1.8-.2,3.6.8,5.4,1.2l10.1,2.3a16.5,16.5,0,0,0,3.1.4c2.9-.2,5.1-2.5,7-4.6s3.4-2.9,4.3-2.4a4.4,4.4,0,0,1,1.9-1.7C138.8,124,140.1,124.7,139.9,125.7Z"/><path class="cls-73" d="M92,165.1h0a5.7,5.7,0,0,1-.1-1.3Z"/><path class="cls-72" d="M55.6,113.4c0,2.5-1.6,4.5-2.6,6.7a14.5,14.5,0,0,0-1.2,5.9c.1,4.5,1.9,8.8,4.2,12.6,1.4,2.2,2.9,4.2,4.3,6.2a42.1,42.1,0,0,1,3.9,5.8c1.1,2.4.8,5.1,1.3,7.6a48.2,48.2,0,0,1,1.4,7.4c.1,2.7-.2,5.3-.2,7.9s.1,2.3.2,3.4.1,1.9.8,2.5,1.5.5,2.3.6a28.8,28.8,0,0,1,4,.9,4.8,4.8,0,0,1,1.8.5c.9.9-.7.7-1.2.8h-8c-.6,0-1.3.2-1.5-.5a8.8,8.8,0,0,1-.2-1.6,25.5,25.5,0,0,0-2.2-5.4c-2.1-4-4.5-7.7-3.6-12.4.2-1.4.6-2.8.9-4.1s.7-2.7.4-3.7-1.4-1.4-2.1-2L55.4,150a68.6,68.6,0,0,1-10.1-12.8l-.9.5c2.7,3.7,5.6,7.2,7.1,11.5a15.9,15.9,0,0,1,.9,6.1c-.2,2.5-.9,4.9-1.2,7.4a128.3,128.3,0,0,0-1.1,13.8.7.7,0,0,0,.4.5,52.9,52.9,0,0,1,5.4,1.3l2.3.7c.9.4.9.8-.1.9l-1.9.2a46.1,46.1,0,0,1-5.3.2c-.8,0-2.8.4-3-.8s.2-.6.2-.8a6.6,6.6,0,0,0,.1-1.4,27.5,27.5,0,0,0-.9-5,40.9,40.9,0,0,1-.7-6,46.5,46.5,0,0,1,.5-11.2,3.3,3.3,0,0,0-.8-3,28.5,28.5,0,0,1-3.4-4.9,57,57,0,0,1-4.5-9.7c-1.3-3.5-2-7.4-1-11.1s2.9-6.2,3.5-9.7a35.5,35.5,0,0,0,.6-5.7c.1-1.7-.1-3.8.9-5.4s5.2-2.1,6.4-4.8a.5.5,0,0,0-.6-.8H48l.6.4c-1.1-3.1-2-7.6,1.6-9.5a3.1,3.1,0,0,1,4.2,1c1.1,1.6.7,3.7,0,5.5s-2,4.6.8,5.5a10,10,0,0,1,3.7,1.5c1.2.8,2.3,1.8,3.4,2.7s4.1,3,6.7,3.2,6.3-1.2,9.1-2.6a41.9,41.9,0,0,1,4.9-2l2.4-.5h1.1c.5.2,1.3.7,1,1.4s-2.1.6-2.9.6a4.7,4.7,0,0,0-1.7.2A17,17,0,0,0,79,110a28.1,28.1,0,0,1-5.5,2.7c-1.8.8-3.8,1.8-5.8,1.8a26.6,26.6,0,0,1-6.3-.9l-6.1-1.4a.5.5,0,0,0-.2,1l6.3,1.4a39.1,39.1,0,0,0,5.8,1,13.9,13.9,0,0,0,5.3-1.4,40.9,40.9,0,0,0,5.2-2.3c1.7-.9,3.1-2.2,4.8-3.1s3.6.2,5.1-.8a1.9,1.9,0,0,0,.7-2.6,3.4,3.4,0,0,0-2.9-1.1c-3.9.2-7.3,2.7-10.9,4.1a10.9,10.9,0,0,1-6.4.9,10.9,10.9,0,0,1-4.5-2.4c-2.3-1.8-4.4-4-7.3-4.7-1.1-.3-2.1-.6-1.8-2a17,17,0,0,1,.9-2.4,8.1,8.1,0,0,0,.5-5.1A4.3,4.3,0,0,0,49,90.6c-3.3,2.4-2.6,6.8-1.4,10.1a.6.6,0,0,0,.6.4h.3l-.6-.7c-1.1,2.5-4.9,2.3-6.4,4.8a9,9,0,0,0-.9,4.3c-.1,2.1-.2,4.2-.5,6.4a27.2,27.2,0,0,1-2,6.1,21,21,0,0,0-1.9,5.3,21.6,21.6,0,0,0,1.3,11,70.5,70.5,0,0,0,5.2,10.7l1.5,2.3a10.1,10.1,0,0,1,1.8,2.4c.4,1,0,2.2-.1,3.2a18.4,18.4,0,0,0-.3,3.3,49.8,49.8,0,0,0,.7,12.2c.4,2.2,1.2,4.4.7,6.7s0,2,1.4,2.2a29.1,29.1,0,0,0,6.6,0l3.6-.3c.5-.1,1.1-.2,1.3-.7s-1.2-2.1-2.1-2.4-4.7-1.3-7-1.8l.3.5a108.5,108.5,0,0,1,1.3-15c.3-2.2.9-4.4,1-6.6a16.9,16.9,0,0,0-.9-5.9c-1.6-4.5-4.5-8.1-7.2-11.8-.4-.5-1.3-.1-.9.5a62.7,62.7,0,0,0,8.9,11.6,65.1,65.1,0,0,0,5.4,5.1c.7.6.7.8.7,1.7a17.7,17.7,0,0,1-.4,2l-.9,3.9c-.8,4.5.8,8.1,2.9,12a26.2,26.2,0,0,1,2.7,5.9c.3.8.1,2.1.6,2.9s1.4.6,2.1.6l8.2-.2c1-.1,3.8-.3,2.6-2a4.2,4.2,0,0,0-2-1l-4.1-1c-1.2-.2-2.8,0-3-1.4a22.8,22.8,0,0,1-.4-4.5c.1-2.7.3-5.4.2-8.1s-1-5-1.4-7.5-.2-4.9-1.3-7.2a40.9,40.9,0,0,0-4-6.2c-3.4-4.7-7-9.5-8.1-15.3a14.7,14.7,0,0,1,1-8.8c1-2.2,2.5-4.2,2.5-6.8a.5.5,0,0,0-1,0Z"/><path class="cls-72" d="M56.3,115.2l5.4,1.4a19.7,19.7,0,0,0,5.4.9c3.2-.1,5.8-2.2,8.2-4.1.5-.4-.2-1.1-.7-.7-2.4,1.9-5,4-8.2,3.8a29.5,29.5,0,0,1-5-1l-4.9-1.3c-.6-.2-.9.8-.2,1Z"/><path class="cls-72" d="M76.9,107.9a4.9,4.9,0,0,1,2.2-2.5,2.8,2.8,0,0,1,2.9,0,.5.5,0,1,0,.5-.9,3.9,3.9,0,0,0-3.9,0,6.8,6.8,0,0,0-2.7,3.1.5.5,0,0,0,.4.6.5.5,0,0,0,.6-.3Z"/><path class="cls-72" d="M243.8,167.8c.6-2.3,0-4.4-.1-6.7s.7-4.9,3.4-4.8,3.8,3,3.4,5.3-1.4,3.7-.4,5.4a3,3,0,0,0,3.9,1.1c1.7-.6,2.9-2.4,4.1-3.8a78.4,78.4,0,0,0,8.2-11.6,17.4,17.4,0,0,0,2-5.8,19.4,19.4,0,0,0-.2-3.4,4.5,4.5,0,0,1,.1-1.1,1.2,1.2,0,0,1,1.5-.8c.9.2.7,1.9.6,2.6a64.4,64.4,0,0,1-2,7.2l-2.3,7.3-1.1,3.8a11.8,11.8,0,0,1-2.3,3.2c-1.7,1.8-3.3,3.7-4.9,5.6a55.6,55.6,0,0,0-4.1,5.8c-.9,1.8-1,4-1.2,6a43.8,43.8,0,0,0,7,27.9c.4.5,1.2,0,.9-.5a42.3,42.3,0,0,1-6.9-27.2,22,22,0,0,1,.5-3.7,9.5,9.5,0,0,1,1.9-3.9,72.5,72.5,0,0,1,4.9-6.4l2.4-2.8a10.9,10.9,0,0,0,2.2-2.6,15.4,15.4,0,0,0,1.1-3l1.3-4.3,2.4-7.8c.6-1.9,1.7-4.4,1.3-6.4s-1.8-2.6-3.2-1.7-.8,3.8-.9,5.5a14.8,14.8,0,0,1-2.7,7.3c-1.3,2.1-2.7,4.2-4.2,6.2a58,58,0,0,1-4.9,6.2,4.2,4.2,0,0,1-3.4,1.5c-1.8-.4-1.5-2.5-1.1-3.9s1-4.2-.3-6.1a4.7,4.7,0,0,0-4.8-2c-5.3,1.4-2.1,8.7-3.1,12.1a.5.5,0,0,0,1,.3Z"/><path class="cls-72" d="M259.6,211c.6,2.3.1,5-.3,7.3s-.8,4.5-1.3,6.7c-1,4.6-2.2,9.1-3.1,13.6,0,.3.1.6.4.6l7.1,1a10.1,10.1,0,0,1,1.7.3c.4.1.5-.2.4.3s-.2.2-.5.4a8.6,8.6,0,0,1-3.2,1l-6.6,1h-.8c-.7.1-.6.2-1.1-.4s-.4-.9-.4-1.7v-3.4c.1-4.7.4-9.4.8-14.1.3-2.2.7-4.5.9-6.8s-1.5-2.6-2.5-3.8a26.1,26.1,0,0,1-5.4-12.8c-.1-.6-1.1-.6-1,0a27.2,27.2,0,0,0,5,12.6,15.9,15.9,0,0,0,2,2.4c.6.6.9.8.9,1.6l-.3,2.2c-.4,2.8-.7,5.7-.9,8.5s-.4,5.5-.5,8.2V240a9.1,9.1,0,0,0,.2,3.3c.7,1.8,3.4.8,4.8.6a32.8,32.8,0,0,0,7.6-1.4c.8-.3,1.9-.7,2.2-1.6a.9.9,0,0,0-.6-1.3,16.6,16.6,0,0,0-2.2-.3l-2.5-.3-4.9-.7.4.6c.9-4.9,2.2-9.7,3.3-14.5.5-2.4.9-4.8,1.3-7.2s.6-4.4.1-6.5c-.2-.6-1.2-.3-1,.3Z"/><path class="cls-72" d="M242.9,167.4h-.5c0-.1.1,0,0,0s-.1-.2-.2-.3a2.1,2.1,0,0,0-1.5-.9.5.5,0,0,0-.5.5.6.6,0,0,0,.5.5h.4l.6.7a1.4,1.4,0,0,0,1.9.1c.1-.2.2-.5,0-.7s-.6-.2-.7,0Z"/><path class="cls-72" d="M249.6,156.6a39.6,39.6,0,0,1,9.9-6.8c1.5-.8,3.1-1.2,3.9-2.9a6.5,6.5,0,0,1,3.9-3.9.5.5,0,1,0-.3-.9,6.6,6.6,0,0,0-3.8,2.9c-.5.8-.7,1.9-1.4,2.5a10.5,10.5,0,0,1-2.8,1.4,41.5,41.5,0,0,0-10.1,7,.5.5,0,1,0,.7.7Z"/><path class="cls-72" d="M251.4,160.8a10.3,10.3,0,0,0,3.5-2.7,39.8,39.8,0,0,1,3.6-3.5l4.2-3.8c1.3-1.1,2.8-2.9,4.5-3.1a.5.5,0,1,0,0-1c-1.6.2-2.7,1.2-3.9,2.3l-4.6,4a46.4,46.4,0,0,0-3.9,3.8,13.4,13.4,0,0,1-3.9,3.2c-.6.2-.1,1.1.5.8Z"/><path class="cls-72" d="M242.8,160.9c-3.7,2.5-7.1,6.3-7.3,10.9-.1,2.8,1.3,5.5,1.5,8.3a47.7,47.7,0,0,1-.8,9.2c-.9,5.8-1.8,11.7-1.1,17.6a39,39,0,0,0,1.9,8.2,23.6,23.6,0,0,1,1.7,8.7c-.1,3.4-.9,6.7-1,10a44.3,44.3,0,0,0,1.1,10.2c0,.2.2.4.4.3,4.1-.2,8.3-.4,12.2-1.7.4-.2.5-.9,0-1a56.3,56.3,0,0,0-9.3-1.4l.5.5c.5-6.4,2.6-12.6,3-19.1s.1-13.4,0-20.1a.5.5,0,1,0-1,0c.1,6.7.4,13.4,0,20.1s-2.5,12.7-3,19.1a.5.5,0,0,0,.5.5,52.8,52.8,0,0,1,9,1.4v-1c-3.8,1.3-7.8,1.5-11.9,1.7l.5.4a44.1,44.1,0,0,1-1-8.9,64,64,0,0,1,.8-8.8,21.6,21.6,0,0,0-.5-8c-.7-2.6-1.8-5.1-2.4-7.8-1.3-5.8-.7-11.8.1-17.6s2.1-10.8.7-16.1a17.1,17.1,0,0,1-.9-4.5,9.5,9.5,0,0,1,1-4,18.1,18.1,0,0,1,5.8-6.2c.5-.3,0-1.2-.5-.9Z"/><path class="cls-72" d="M187.1,160.2a116.3,116.3,0,0,1,.1,16.7c-.1,1.4-.3,2.8-.5,4.2s-.4,1.7.1,2.4,1.4.8,2.2.9l4.2.5-.5-.8a5.4,5.4,0,0,0-.6,2.5l.4-.5a34,34,0,0,1-4.6.9l-2.6.3c-.5,0-1.2.3-1.4-.5a3.2,3.2,0,0,1,.3-.9c1-2.8-.7-5-1.5-7.6s-.7-6.5-.4-9.7a20.7,20.7,0,0,0,.2-4.3c-.1-1.1-.8-1.5-1.7-1.9l-9.1-3.8c-2.7-1.2-5.1-2.7-6.5-5.4a20.8,20.8,0,0,1-1.8-8.1c-.2-3.1-.3-6.1-.3-9.1a40.3,40.3,0,0,1,.9-10.4,11.3,11.3,0,0,1,.4-1.5,6.1,6.1,0,0,1,1.7-1.9,12.6,12.6,0,0,1,4.5-2.6.5.5,0,0,0,.3-.7c-1.5-3-2.7-7.1,0-9.7s6.1-.7,6.7,2.5a11.3,11.3,0,0,1-.6,5.2,4.2,4.2,0,0,0-.1,3.1c1.1,2.1,5,2.1,6.9,1.9s6.4-1.8,9.5-2.9,5.1-1.5,6.4-4.1a39.8,39.8,0,0,0,3-8.8,20.5,20.5,0,0,0,.7-4.2,17,17,0,0,1,.1-2.2c.1-.9,1-3.4,2.4-1.9s.1,3.5-.1,4.5-.6,3.7-.9,5.5c-.7,3.4-1.5,6.7-2.5,10a4.4,4.4,0,0,1-1.5,2.3l-1.9,1-4.9,2.3-4.5,2c-1.6.8-3.4,1.4-4.8,2.3s-2.7,4.7-2.9,7.2-.4,6.6-.5,9.9a5.7,5.7,0,0,0,.8,3.6,12.8,12.8,0,0,0,2.6,2.6,34.9,34.9,0,0,0,7.5,3.7l4.7,1.9.7.4c1,.6.9,1.4.9,2.4v3c.1,3.9-.1,7.8-.3,11.7-.2,2-.3,4-.5,5.9s-.8,3,.2,4,2.7.8,3.8,1.1a27,27,0,0,1,5.3,2.2v-.9a32.5,32.5,0,0,1-6.2,1.3c-2,.1-4.4.4-6.3-.1s-1.5-.7-1.5-1.5.8-.9,1-1.4a2.7,2.7,0,0,0,.4-1.8c-.2-1.9-.7-3.9-1-5.9l-2-12.7c-.2-1.5-.4-3-1.8-3.9a14,14,0,0,0-3.9-1.4c-3.4-.7-7.1-.8-10.2-2.5-.6-.3-1.1.6-.5.9,2.7,1.5,6,1.7,9,2.3a17.4,17.4,0,0,1,4.6,1.3c2,1,1.9,3.8,2.2,5.8l2.1,13.4c.2,1.1.7,2.6.3,3.6s-1,1.1-1.1,1.9a2.4,2.4,0,0,0,1.8,2.7c1.9.7,4.4.5,6.4.3a33.2,33.2,0,0,0,7-1.3.5.5,0,0,0,.1-.9,21.7,21.7,0,0,0-4.1-1.9l-2.3-.7c-.9-.2-2.4-.1-2.7-1.2a8.2,8.2,0,0,1,.2-2.2l.3-2.7c.1-1.9.3-3.7.4-5.6.2-3.7.3-7.4.2-11.1,0-1.2.3-3-.3-4.1s-2.3-1.5-3.4-1.9a88.4,88.4,0,0,1-8.4-3.6,19.5,19.5,0,0,1-3.7-2.7c-1.6-1.6-1.4-3.3-1.3-5.4s0-7.2.7-10.6c.3-1.8.9-3.6,2.6-4.5l4.7-2.2c3.4-1.6,6.9-3,10.2-4.7s3.1-4.8,3.8-7.5,1.6-7,2.2-10.6c.3-1.7,1.5-5.7-.8-6.7s-3.4,1.9-3.4,3.6a37.1,37.1,0,0,1-2.2,10.4,30.3,30.3,0,0,1-1.6,4.2c-1,1.8-2.9,2.3-4.7,2.9s-6.6,2.6-10,3.1c-1.5.3-5.7.5-6.3-1.4a5.5,5.5,0,0,1,.4-2.6,20.5,20.5,0,0,0,.5-2.4c.3-2.8-.5-6.1-3.3-7.2s-5.2.7-6.3,2.9-.4,6.5,1,9.3l.3-.7a12.5,12.5,0,0,0-6.7,4.8,8.9,8.9,0,0,0-.8,3.2,40.3,40.3,0,0,0-.6,4.7,72.2,72.2,0,0,0,.1,10.4,42.7,42.7,0,0,0,.8,8.7,12.7,12.7,0,0,0,4.1,6.7c2.5,2,5.7,3,8.5,4.1a45.5,45.5,0,0,1,5.1,2.1c1.4.9.6,4.2.5,5.6-.3,3.4-.5,6.8.6,10s1.8,3.5,1.7,5.4-1.3,2.5-.4,3.5,2.9.3,3.9.2a37.8,37.8,0,0,0,5.7-1,.5.5,0,0,0,.3-.5,3.7,3.7,0,0,1,.5-2,.5.5,0,0,0-.4-.7l-3.5-.4c-1.1-.1-2,.1-2.1-1.5a3.9,3.9,0,0,1,.2-1.5c.3-2.1.4-4.3.5-6.5a105.9,105.9,0,0,0-.2-13.8c-.1-.6-1.1-.6-1,0Z"/><path class="cls-72" d="M178,120.4c3.1-1.3,6.1-2.5,9.3-3.5,1.5-.5,3.1-.8,4.7-1.2a6.5,6.5,0,0,0,2.8-2.1,24.1,24.1,0,0,0,4.7-6.3,11.3,11.3,0,0,0,.9-3.5c.2-1.7.4-3.9,2.4-4.2s.4-1-.2-.9c-2.5.3-2.9,3-3.2,5.1s-2.2,5.6-4.2,7.9a8.4,8.4,0,0,1-3.3,2.9c-1.5.6-3.1.8-4.6,1.3-3.3,1-6.4,2.2-9.6,3.5-.5.2-.3,1.2.3,1Z"/><path class="cls-72" d="M97.7,129.3c2.2.1,3.3-2.2,3.4-4.2s-.4-3.5.6-5a4.2,4.2,0,0,1,3.6-1.9,3.8,3.8,0,0,1,3.1,2.2c.8,1.8.2,3.3-1,4.8s-2.8,4-.9,5.6a5,5,0,0,0,2.9.9,31.2,31.2,0,0,1,5.3,1.1c3,.8,5.9,2.7,9,2.7s5.3-1.8,7.4-3.5a19.3,19.3,0,0,0,3-2.7c1.1-1.2,1.9-2.7,3-3.8s2.9-1.2,1.8.7-1.2,1.3-1.7,1.8l-3.7,3.9-3.8,3.9a21,21,0,0,1-3.7,3.6c-1.6.9-3.8.7-5.5.5a51.7,51.7,0,0,1-5.5-.7l-4.9-1c-1.1-.2-2.4-.6-3.3.2s-1.4,2.1-2,3.1a47.1,47.1,0,0,0-2.2,4.5,36.6,36.6,0,0,0-2.7,8.5,25.4,25.4,0,0,0-.2,8.7c.5,3.1,1.8,5.8,3,8.7a22.7,22.7,0,0,1,2.4,11.2c-.2,4-.9,8-1.4,12L103,201c-.2,1.3-.9,3.2,0,4.4s2.4,1,3.5,1.4a27.3,27.3,0,0,1,5.4,2.7v-.9a48.9,48.9,0,0,1-6.6.5c-1.9,0-4.2.2-6-.6s-1-1.6-.6-2.8a3.4,3.4,0,0,0,.3-2c-.3-2.1-.9-4.2-1.1-6.3a34.2,34.2,0,0,1,1.2-12.3c.5-1.6,1.4-3.2.7-4.9a22.8,22.8,0,0,0-2.6-4.6c-2.3-3.6-4.6-7.3-4.9-11.7-.1-.6-1.1-.6-1,0,.2,3.8,1.9,7.2,3.9,10.4s2.3,3.5,3.3,5.3a4.4,4.4,0,0,1,.2,3.7c-.4,1.1-.7,2.2-1,3.3a34,34,0,0,0-.6,12.7,15.9,15.9,0,0,0,.6,3,5.2,5.2,0,0,1-.2,3.7,2.5,2.5,0,0,0,1.1,3.3c1.6.9,3.9.8,5.8.8a39.4,39.4,0,0,0,7.7-.6c.5,0,.5-.7.2-.9a30.5,30.5,0,0,0-4-2.1l-2.1-.8c-.9-.3-2.3-.4-2.7-1.5a8.3,8.3,0,0,1,.3-2.7l.3-2.5.7-5.3c.5-3.6,1-7.1,1.2-10.6a20.9,20.9,0,0,0-1.6-9.6c-1.2-3-2.8-5.8-3.5-8.9a23.1,23.1,0,0,1-.1-9.8,33.7,33.7,0,0,1,3-9.3c.7-1.5,1.4-2.9,2.2-4.3a6.2,6.2,0,0,1,1.1-1.7c.8-.9,2.2-.4,3.3-.2a67.2,67.2,0,0,0,10,1.6,18.5,18.5,0,0,0,4.7-.1,8,8,0,0,0,3.2-2.2l7.5-7.8,3.7-3.8c.6-.7,1.1-1.5.5-2.3s-3.6-.2-4.5,1.1a27.1,27.1,0,0,1-6.8,6.7,10.3,10.3,0,0,1-4.7,2,11.4,11.4,0,0,1-4.8-1.2,38.4,38.4,0,0,0-9.4-2.5,5.4,5.4,0,0,1-2.8-.8c-.9-.8-.4-2.1.1-3s2.1-2.3,2.5-3.9a4.8,4.8,0,0,0-8.9-3.5,7.7,7.7,0,0,0-.7,4.2c.1,1.6-.1,4.6-2.4,4.5-.7-.1-.7.9,0,1Z"/><path class="cls-72" d="M98,128.2a6.9,6.9,0,0,0-5.8,4.3c-1.4,3-1.2,6.4-2.1,9.5s-2.8,5.6-4.5,8.3a20.6,20.6,0,0,0-3.6,8.3c-1,6.4.8,13.3,3.4,19.1.7,1.5,1.9,3.1,1.9,4.9a38.1,38.1,0,0,1-.8,5.9c-.5,3.2-1,6.6.1,9.7s1.6,3.2,2.2,4.9a4.2,4.2,0,0,1,.4,2.7c-.2.7-.6,1.3-.3,2.1s1.7,1.1,2.6,1.1a23.3,23.3,0,0,0,5.9-.8.5.5,0,0,0-.3-1,16.2,16.2,0,0,1-4.9.8c-.9,0-2.3.3-2.3-1.2s.4-1.3.3-2c-.1-2.7-2.1-4.9-2.8-7.5s-.2-6.5.3-9.6l.6-4.2a7,7,0,0,0-.9-4c-2.8-5.5-4.8-11.8-4.6-18.1a17.1,17.1,0,0,1,2.6-9c1.3-2.2,3-4.3,4.2-6.7s1.9-6,2.5-9.2,2.1-7.2,5.9-7.3c.6-.1.6-1.1,0-1Z"/><path class="cls-72" d="M98.2,205.1l-5.4-1.8.4.5c-.5-6.4.7-12.8,1.1-19.2a46.3,46.3,0,0,0-.5-9.1c-.6-3.4-1.9-6.7-1.3-10.2.1-.6-.9-.9-1-.2-.5,3,.3,5.9.9,8.9a38,38,0,0,1,.9,10.1c-.3,6.6-1.6,13.1-1.1,19.7a.5.5,0,0,0,.3.5,50.5,50.5,0,0,0,5.5,1.8.5.5,0,0,0,.2-1Z"/><path class="cls-72" d="M106.7,129.8l9.1,2,4.5,1a17.8,17.8,0,0,0,3.9.7,8,8,0,0,0,5.6-2.4c1.8-1.6,3.5-4.8,6.1-4.9a.5.5,0,0,0,0-1c-2.2.1-3.6,1.8-4.9,3.3s-3.7,3.9-6.3,4a16.2,16.2,0,0,1-4.4-.7l-4.3-1-9-2a.5.5,0,0,0-.3,1Z"/><path class="cls-72" d="M88.4,107a301.6,301.6,0,0,0,43.3-26.1A286.4,286.4,0,0,0,177,40.3a286.6,286.6,0,0,0,23.2-29.5c.4-.7-.7-1.3-1.1-.7a282.6,282.6,0,0,1-42.8,49.2A284.7,284.7,0,0,1,111.2,93c-7.6,4.6-15.5,8.9-23.4,12.9-.8.3-.1,1.4.6,1.1Z"/><path class="cls-72" d="M139.6,127.1A403.7,403.7,0,0,0,209.5,70c5.4-5.5,10.6-11.1,15.6-16.9.5-.6-.4-1.4-.9-.8a404.8,404.8,0,0,1-65.8,60.3c-6.3,4.7-12.8,9.1-19.4,13.4-.7.4-.1,1.5.6,1.1Z"/><path class="cls-74" d="M236.3,229.4c-.1.6-.8.7-1.3.8l-9.7.2a1.7,1.7,0,0,1-1.2-.3,1.7,1.7,0,0,1-.1-.7c-.6-6-6.1-10.7-6.3-16.7-.1-3.5,1.6-6.9,1.6-10.4-6.1-5-9.9-11.3-15-17-2.9,6.9-.6,14.7-3,21.7-1,2.9-2.7,5.4-4,8.1s-3.4,9.1-.2,12.3c.9.9.7,1.6,1.9,2a4.5,4.5,0,0,1,1.2.6,1.2,1.2,0,0,1,.5,1.1c-.2,2.2-3.2.6-4.2.1l-5.7-2.7c-1.1-.5-2.9-1.1-2.7-2.3s.6-2.3,1.5-2.2a.3.3,0,0,0,.3-.3c-.5-5.4,1.5-10.2,3.5-15.4.5-1.4,1.9-2.9,2-4.4a31.1,31.1,0,0,0-.8-4.4c-.6-3.6-2.8-6.7-3-10.3s0-8.2,1.6-11.8c.8-1.7,2.1-2.7,3.1-4.1a25.7,25.7,0,0,0,2.7-6.1,30.4,30.4,0,0,0,1.4-9.5c.1-2,.2-4.3,1.6-5.7s4.9-1.7,5.7-4h-.2c-1-2.6-1.6-5.5-.3-8.1a4.8,4.8,0,0,1,3.7-2.4c2.6-.3,4,2,4.1,4.1a10.6,10.6,0,0,1-1.6,5.4,2.7,2.7,0,0,0-.2,1.3,19.9,19.9,0,0,1,9.8-1.8,2.9,2.9,0,0,0,1.3-.1,2.8,2.8,0,0,0,1-.9c1.1-1.6,2.3-3.1,3.5-4.7a3.3,3.3,0,0,0,.7-1.3,9.7,9.7,0,0,0,0-1.7,6.6,6.6,0,0,1,.3-3.4c.1-.4.3-.8.7-.8s.4.2.6.4.8,2.6.7,4.1a15.2,15.2,0,0,0,1.2-5.9c0-1-.3-2,.1-2.9s1.7-1.4,2.3-.7a2.2,2.2,0,0,1,.3,1.6,109.9,109.9,0,0,1-2.8,18.1,9.7,9.7,0,0,1-2.5,5.3c-2.2,2.1-5.5,2.2-8.4,3s-5.6,1.9-6.5,4-.2,2.1-.6,3.1-1.4,2.7-2.1,4c-2.1,4.8-1,10.4,1.3,15s5.7,8.7,8.6,13a11.8,11.8,0,0,1,1.9,3.7,29.8,29.8,0,0,1,.5,4.3c.3,2.4,1.1,4.7,1.5,7.1.7,4.9-.6,9.9.4,14.7a1.8,1.8,0,0,0,.4,1c.3.3.7.3,1.2.4a26,26,0,0,1,6.7,1.5C235.8,228.6,236.4,229,236.3,229.4Z"/><path class="cls-72" d="M196.8,230.8l-5.3-2.5c-1.3-.6-3.6-1.2-2.7-3.1s1.6-.4,1.6-2a21.2,21.2,0,0,1,.4-5.6c.4-1.7.9-3.2,1.4-4.8a36,36,0,0,1,2.2-5.4,9.1,9.1,0,0,0,1.5-3.5,13.5,13.5,0,0,0-.6-3.5,27.9,27.9,0,0,0-1-3.9c-.5-1.5-1.2-3-1.7-4.6a24.8,24.8,0,0,1-.1-10.5,11.7,11.7,0,0,1,1.8-4.8c.8-1.3,2-2.4,2.8-3.7a26.8,26.8,0,0,0,3.2-8.7,34.3,34.3,0,0,0,.6-5.6c.1-1.8-.1-3.8.8-5.5s5.2-2.1,6.5-4.8c.1-.4-.1-.9-.6-.7h-.2l.6.4c-.8-2.1-1.4-4.3-.8-6.5s2.6-4,4.9-3.3,2.6,3.2,2.3,5.1a16.6,16.6,0,0,1-1.2,3.1,3.8,3.8,0,0,0-.5,2.1c.6,3.7,5.5,1.1,7.6.9a18.2,18.2,0,0,1,3.3-.1c.9.1,2.2.6,3.1.2s2-3,2.6-4.2,1.7-4.1,2.6-6.2a17.2,17.2,0,0,0,1.6-5.9c.1-1-.3-2.3,0-3.3s1.3-1.5,1.7-.1-.1,1.2-.1,1.7c-.3,2.3-.5,4.6-.8,6.9s-.7,4.9-1.2,7.3-.9,4.4-2,6.2c-2.1,3.7-6.7,3.4-10.2,4.6s-5.7,2.2-6.1,5.2a9.7,9.7,0,0,1-1,3.3,28,28,0,0,0-1.5,3,12.9,12.9,0,0,0-1.1,5.5c.1,8.5,6,15.1,10.6,21.8a12.2,12.2,0,0,1,2.6,6.3,43.1,43.1,0,0,0,1,6.1,31.8,31.8,0,0,1,.9,6.9c0,2.2-.2,4.4-.2,6.7s.1,2,.2,3a4.3,4.3,0,0,0,.7,2.5,1.7,1.7,0,0,0,1.2.6l3.6.6a10.8,10.8,0,0,1,3.2.9c1,.7.2.7-.5.8h-1.9c-2.5.1-4.9.3-7.3.2s-.9-1.3-1.1-2.1-.5-1.7-.8-2.6-1.5-3-2.3-4.5a33.8,33.8,0,0,1-2.4-5.1,11.9,11.9,0,0,1-.1-6.2,63.8,63.8,0,0,0,1.2-6.3,1.7,1.7,0,0,0-.8-1.8,17,17,0,0,1-2.4-2.2,120.2,120.2,0,0,1-8-9.4c-1.3-1.6-2.6-3.2-4-4.7s-.7-.1-.8.2c-1.5,3.7-1.6,7.7-1.7,11.6s-.4,8.7-2.4,12.7-3.6,6.1-4.5,9.6-.7,5.9,1.2,8.3a22,22,0,0,0,1.4,1.8c.5.6,1.4.6,1.9,1s.7,1.4-.2,1.5l-1-.2-1.7-.7c-.6-.3-1.1.6-.5.9s4.8,2.1,4.9-.6-1.8-1.6-2.7-2.6a19.2,19.2,0,0,1-1.3-1.7,6,6,0,0,1-1.3-2.8c-.7-3.9,1.3-7.8,3.1-11a28,28,0,0,0,2.8-6.1,20.6,20.6,0,0,0,1.1-6.1c.4-5.2-.1-10.4,1.9-15.4l-.9.3c3,3.3,5.6,6.9,8.5,10.3a42.4,42.4,0,0,0,4.6,4.9c.8.7,1.9,1.2,1.8,2.5s-.5,2.5-.8,3.7a17.3,17.3,0,0,0-.7,6.4,18,18,0,0,0,1.5,5c1.8,3.7,4,6.9,4.7,10.9.3,2,2.1,1.5,3.7,1.5l7.6-.2c.9-.1,2.5-.5,1.9-1.8a2.3,2.3,0,0,0-1.5-1l-3.8-1-2.8-.4c-1.5-.3-1.4-2.6-1.5-3.8s.1-4.8.2-7.2a31.3,31.3,0,0,0-.6-6.8,42.3,42.3,0,0,1-1.3-7.1c-.3-4.4-3.5-7.9-6-11.3s-5.4-7.8-6.6-12.4a16.4,16.4,0,0,1-.4-7c.5-2.4,1.8-4.2,2.7-6.4a8.2,8.2,0,0,0,.6-2.6,4,4,0,0,1,1.9-2.8,16.3,16.3,0,0,1,4.7-2c3.5-1,7.5-1.1,9.6-4.5a20.6,20.6,0,0,0,2-5.9c.5-2.6,1-5.1,1.3-7.6s.6-4.8.8-7.1.8-3.5-.9-4-2.5.8-2.6,2.1a11.3,11.3,0,0,0,0,2.6,12,12,0,0,1-.8,4.2c-.8,2.4-1.9,4.7-2.9,7s-1,2.2-1.4,3.3a4.7,4.7,0,0,1-.7,1.2c-.5.5-1.9.1-2.6,0a13.1,13.1,0,0,0-6.5.6,6.6,6.6,0,0,1-2.8.5c-2-.5-.7-2.7-.2-3.8,1.2-2.7,1.5-7-1.8-8.3s-6.4,1.8-6.8,4.9a12.9,12.9,0,0,0,1,5.9c.1.3.3.5.6.4h.3l-.6-.7c-1.1,2.4-4.4,2.3-6,4.2s-1.3,6.4-1.6,9.4a27.2,27.2,0,0,1-3.3,10.7,31.7,31.7,0,0,1-2.8,3.6,13.4,13.4,0,0,0-1.9,4.8,26.4,26.4,0,0,0-.4,10.1c.5,3.2,2.2,6,2.9,9.2a26.6,26.6,0,0,1,.7,3.9c-.1,1.6-1.4,3-2,4.5a52.1,52.1,0,0,0-3.4,10.8,28.3,28.3,0,0,0-.2,2.9,5.7,5.7,0,0,1,.1,1.3c-.2.4-.2.2-.6.4a3,3,0,0,0-1.2,3c.2,1.3,1.7,1.8,2.7,2.2l6,2.9C196.9,231.9,197.4,231.1,196.8,230.8Z"/><path class="cls-72" d="M213.9,149a17.9,17.9,0,0,1,7.2-1.9c1-.1,2.3.3,3.3-.1s1.5-1.4,2-2.1l2.3-3.1a5.4,5.4,0,0,0,1.4-2.7,17.8,17.8,0,0,1,0-4c0-.1.1-.7.3-.7s.6.4.7.6a3.5,3.5,0,0,1,.2,2,.5.5,0,1,0,1,0,4.1,4.1,0,0,0-.8-3.2c-.5-.6-1.2-.9-1.8-.2s-.8,2.3-.8,3.3.2,1.5.2,2.3a4.1,4.1,0,0,1-1.2,2l-2.6,3.6c-.6.7-1,1.3-1.9,1.3h-2.3a18.7,18.7,0,0,0-7.7,2c-.6.3-.1,1.2.5.9Z"/><path class="cls-72" d="M231.3,134a99.6,99.6,0,0,0,36.2-29.8,103.6,103.6,0,0,0,17.9-40.9,106,106,0,0,0,1.9-15c.1-.8-1.2-.8-1.2,0a102.8,102.8,0,0,1-6.6,31,96.5,96.5,0,0,1-29.1,41,99.8,99.8,0,0,1-19.7,12.6c-.8.4-.1,1.4.6,1.1Z"/></svg>