<svg xmlns="http://www.w3.org/2000/svg" xmlns:xlink="http://www.w3.org/1999/xlink" viewBox="0 0 1303.8 541.73"><defs><style>.cls-1{font-size:18px;font-family:Lora-Bold, Lora;}.cls-1,.cls-22,.cls-25,.cls-3{fill:#231f20;}.cls-1,.cls-22{font-weight:700;}.cls-2{letter-spacing:-0.01em;}.cls-3{font-size:16px;font-family:Lato-Regular, Lato;}.cls-4{letter-spacing:-0.02em;}.cls-5{letter-spacing:-0.01em;}.cls-6{letter-spacing:-0.07em;}.cls-7{letter-spacing:-0.01em;}.cls-8{letter-spacing:-0.02em;}.cls-9{fill:url(#Degradado_sin_nombre_251);}.cls-10{fill:url(#Degradado_sin_nombre_434);}.cls-11{fill:url(#Degradado_sin_nombre_251-2);}.cls-12{fill:url(#Degradado_sin_nombre_443);}.cls-13{fill:url(#Degradado_sin_nombre_429);}.cls-14{fill:#f5822a;}.cls-15{fill:#355f6d;}.cls-16,.cls-17,.cls-18,.cls-19,.cls-20,.cls-21{opacity:0.8;}.cls-16{fill:url(#Degradado_sin_nombre_441);}.cls-17{fill:url(#Degradado_sin_nombre_441-2);}.cls-18{fill:url(#Degradado_sin_nombre_429-2);}.cls-19{fill:url(#Degradado_sin_nombre_434-2);}.cls-20{fill:url(#Degradado_sin_nombre_443-2);}.cls-21{fill:url(#Degradado_sin_nombre_429-3);}.cls-22{font-size:13.3px;font-family:Lato-Bold, Lato;}.cls-23{letter-spacing:-0.03em;}.cls-24{letter-spacing:-0.02em;}.cls-26{fill:url(#Degradado_sin_nombre_443-3);}.cls-27{fill:url(#Degradado_sin_nombre_443-4);}.cls-28{fill:url(#Degradado_sin_nombre_443-5);}.cls-29{fill:url(#Degradado_sin_nombre_443-6);}.cls-30{fill:url(#Degradado_sin_nombre_443-7);}.cls-31{fill:url(#Degradado_sin_nombre_443-8);}</style><linearGradient id="Degradado_sin_nombre_251" x1="1071.11" y1="189.87" x2="1071.11" y2="269.54" gradientUnits="userSpaceOnUse"><stop offset="0" stop-color="#d4effc"/><stop offset="0.26" stop-color="#ddf1ef"/><stop offset="0.76" stop-color="#f5f7cc"/><stop offset="0.93" stop-color="#fffabe"/></linearGradient><linearGradient id="Degradado_sin_nombre_434" x1="1010.3" y1="123.82" x2="1010.3" y2="269.07" gradientUnits="userSpaceOnUse"><stop offset="0" stop-color="#9ddae9"/><stop offset="0.25" stop-color="#98d8e7"/><stop offset="0.54" stop-color="#8bd4e1"/><stop offset="0.84" stop-color="#74cdd7"/><stop offset="1" stop-color="#65c8d0"/></linearGradient><linearGradient id="Degradado_sin_nombre_251-2" x1="1132.04" y1="84.6" x2="1132.04" y2="229.85" xlink:href="#Degradado_sin_nombre_251"/><linearGradient id="Degradado_sin_nombre_443" x1="1071.21" y1="84.35" x2="1071.21" y2="164.02" gradientUnits="userSpaceOnUse"><stop offset="0" stop-color="#9ddae9"/><stop offset="0.05" stop-color="#95d7e5"/><stop offset="0.23" stop-color="#80d1dc"/><stop offset="0.43" stop-color="#71ccd5"/><stop offset="0.66" stop-color="#68c9d1"/><stop offset="1" stop-color="#65c8d0"/></linearGradient><linearGradient id="Degradado_sin_nombre_429" x1="1131.91" y1="123.82" x2="1131.91" y2="269.33" gradientUnits="userSpaceOnUse"><stop offset="0" stop-color="#9ddae9"/><stop offset="0.51" stop-color="#9bd9e8"/><stop offset="0.69" stop-color="#94d7e5"/><stop offset="0.82" stop-color="#89d3e0"/><stop offset="0.92" stop-color="#78ced8"/><stop offset="1" stop-color="#65c8d0"/></linearGradient><linearGradient id="Degradado_sin_nombre_441" x1="771.41" y1="86.81" x2="771.41" y2="232.06" gradientUnits="userSpaceOnUse"><stop offset="0" stop-color="#bbe4eb"/><stop offset="0.46" stop-color="#b9e3ea"/><stop offset="0.63" stop-color="#b2e1e8"/><stop offset="0.75" stop-color="#a7dde5"/><stop offset="0.85" stop-color="#96d8df"/><stop offset="0.93" stop-color="#80d1d8"/><stop offset="1" stop-color="#65c8d0"/><stop offset="1" stop-color="#65c8d0"/></linearGradient><linearGradient id="Degradado_sin_nombre_441-2" x1="636.07" y1="81.22" x2="636.07" y2="226.74" xlink:href="#Degradado_sin_nombre_441"/><linearGradient id="Degradado_sin_nombre_429-2" x1="710.36" y1="221.21" x2="710.36" y2="300.88" xlink:href="#Degradado_sin_nombre_429"/><linearGradient id="Degradado_sin_nombre_434-2" x1="650.99" y1="135.73" x2="650.99" y2="280.98" xlink:href="#Degradado_sin_nombre_434"/><linearGradient id="Degradado_sin_nombre_443-2" x1="710.36" y1="64.35" x2="710.36" y2="144.02" xlink:href="#Degradado_sin_nombre_443"/><linearGradient id="Degradado_sin_nombre_429-3" x1="784.66" y1="130.78" x2="784.66" y2="276.29" xlink:href="#Degradado_sin_nombre_429"/><linearGradient id="Degradado_sin_nombre_443-3" x1="125.85" y1="81.11" x2="125.85" y2="228" xlink:href="#Degradado_sin_nombre_443"/><linearGradient id="Degradado_sin_nombre_443-4" x1="200.19" y1="215.72" x2="200.19" y2="296.44" xlink:href="#Degradado_sin_nombre_443"/><linearGradient id="Degradado_sin_nombre_443-5" x1="139.09" y1="129.2" x2="139.09" y2="275.82" xlink:href="#Degradado_sin_nombre_443"/><linearGradient id="Degradado_sin_nombre_443-6" x1="260.85" y1="80.67" x2="260.85" y2="227.29" xlink:href="#Degradado_sin_nombre_443"/><linearGradient id="Degradado_sin_nombre_443-7" x1="76.8" y1="103.24" x2="323.41" y2="103.24" xlink:href="#Degradado_sin_nombre_443"/><linearGradient id="Degradado_sin_nombre_443-8" x1="274.6" y1="124.65" x2="274.6" y2="271.54" xlink:href="#Degradado_sin_nombre_443"/></defs><title>Isometrica-C</title><g id="Texto"><text class="cls-1" transform="translate(71.46 367.24)">1. <tspan class="cls-2" x="16.24" y="0">D</tspan><tspan x="29.65" y="0">I sin capacidades definidas </tspan><tspan x="8" y="24.6" xml:space="preserve">  </tspan></text><text class="cls-3" transform="translate(79.46 401.79)">Cuando no se definen las capacidades y <tspan x="0" y="19.2">necesidades de la persona no es posible </tspan><tspan x="0" y="38.4">gene</tspan><tspan class="cls-4" x="33.84" y="38.4">r</tspan><tspan x="39.98" y="38.4">ar ap</tspan><tspan class="cls-5" x="74.58" y="38.4">oy</tspan><tspan x="91.25" y="38.4">os pa</tspan><tspan class="cls-4" x="127.12" y="38.4">r</tspan><tspan x="133.26" y="38.4">a brindarle </tspan><tspan x="0" y="57.6">bienesta</tspan><tspan class="cls-6" x="59.73" y="57.6">r</tspan><tspan x="65.12" y="57.6">.</tspan></text><text class="cls-1" transform="translate(553 367.24)">2. Co<tspan class="cls-7" x="41.09" y="0">n</tspan><tspan x="52.43" y="0">texto de las capacidades </tspan><tspan x="8" y="24.6" xml:space="preserve">  </tspan></text><text class="cls-3" transform="translate(561 401.79)">Las capacidades se definen a t<tspan class="cls-4" x="206.17" y="0">r</tspan><tspan class="cls-8" x="212.31" y="0">a</tspan><tspan class="cls-5" x="220.17" y="0">v</tspan><tspan x="228.15" y="0">és de </tspan><tspan x="0" y="19.2">la descripción de diferentes aspectos </tspan><tspan x="0" y="38.4">de la vida de la persona. El Modelo </tspan><tspan x="0" y="57.6">Ecológico Multidimensional propone </tspan><tspan x="0" y="76.8">seis aspectos.</tspan></text><text class="cls-1" transform="translate(947.94 367.24)">3. Capacidades y necesidades definidas <tspan x="8" y="24.6" xml:space="preserve">  </tspan></text><text class="cls-3" transform="translate(955.94 401.79)">La descripción de las capacidades <tspan class="cls-8" x="0" y="19.2">a</tspan><tspan x="7.86" y="19.2">yuda a la elabo</tspan><tspan class="cls-4" x="110.01" y="19.2">r</tspan><tspan x="116.16" y="19.2">ación de un perfil de </tspan><tspan x="0" y="38.4">necesidades, pa</tspan><tspan class="cls-4" x="108.92" y="38.4">r</tspan><tspan x="115.07" y="38.4">a construir un sistema </tspan><tspan x="0" y="57.6">de ap</tspan><tspan class="cls-5" x="37.36" y="57.6">oy</tspan><tspan x="54.03" y="57.6">o.</tspan></text></g><g id="Monos"><polygon class="cls-9" points="949.42 229.34 1071.11 269.54 1192.81 229.7 1071.48 189.87 949.42 229.34"/><polygon class="cls-10" points="949.64 123.82 1071.34 164.02 1070.74 269.07 949.26 229.45 949.64 123.82"/><polygon class="cls-11" points="1071.68 84.6 1192.78 123.84 1192.78 229.85 1071.3 190.24 1071.68 84.6"/><polygon class="cls-12" points="949.64 123.82 1071.34 164.02 1192.78 123.84 1071.7 84.35 949.64 123.82"/><polygon class="cls-13" points="1071.05 163.43 1192.78 123.82 1192.78 229.8 1071.14 269.33 1071.05 163.43"/><path class="cls-14" d="M1055.15,18c.72,2.86,4.32,13.28,5.26,16.26,1.08,4.79,5,8.67,4.6,13.84l.24.38-.14-.06c3.13,25.31-2.89,51.16.88,76.62-1.66,1.15-3.31,2.29-5,3.45,3.37.94,7.65,1.29,10.71-.56.62-12.8,1.29-30.4,2.16-44.59.21,15,2.94,29.82,2.6,44.82,2.41-.31,13.81,3.24,12.33-1.57-1-1-5.37.11-4.77-2.37-1.49-16.71-1.23-33.53-2.88-50.22l.08.13c-.6-10.73,2-21,4.41-31.46,1.53-1.95,13.36-40.21,4.81-30.72-3.55,5.81-4.81,25.8-10.68,26.42-2.79-1.69,1.42-5.46,1.42-7.94,2.18-14.7-16.43-11.66-10.45,5.66h.22c-.59,3.35-3.51,2.17-3.89-.44C1066.42,32.15,1053.74.43,1055.15,18Z"/><path class="cls-15" d="M1071.29,36c-1-3-1.62-6.32-.82-9.37a6.32,6.32,0,0,1,3.34-4.3s.15-.07.09-.05l.11,0,.3-.1a5.69,5.69,0,0,1,.59-.16l.16,0h.18l.19,0c.2,0,.4,0,.6,0l.3,0,.14,0h.06a6,6,0,0,1,.61.14,5.62,5.62,0,0,1,.58.19l0,0,.13.06.29.15a5.1,5.1,0,0,1,1.75,1.6,6.17,6.17,0,0,1,1,2.68,10.2,10.2,0,0,1-.19,3.59A18.42,18.42,0,0,1,1079,35c-.23.44-.48.87-.74,1.3a.54.54,0,0,0,.93.54c1.67-2.81,3.1-6.11,2.89-9.44a7.1,7.1,0,0,0-2.82-5.51,6,6,0,0,0-5.2-.81,7,7,0,0,0-4.29,4.29c-1.14,2.95-.74,6.36,0,9.34.14.53.29,1,.46,1.56s1.24.37,1-.29Z"/><path class="cls-15" d="M1070.17,36.06c0,2.15-1.88,1.75-2.42.08-.24-.73-.48-1.45-.74-2.17-.76-2.07-1.48-4.15-2.24-6.21-1.64-4.46-3.26-9.38-6.11-13.24-.78-1.06-2.05-2.55-3.55-2a.54.54,0,0,0-.38.37c-1.15,6.5,2.26,12.46,4.26,18.43.49,1.44.77,2.95,1.25,4.39a28.56,28.56,0,0,0,1.59,3.68c1.4,2.8,2.87,5.56,2.65,8.78,0,.69,1,.68,1.06,0a15,15,0,0,0-2-7.66c-.65-1.31-1.35-2.59-1.9-3.94s-.85-2.89-1.29-4.35c-1.84-6.17-5.82-12.37-4.64-19.05l-.37.38c1.37-.46,2.7,2,3.23,2.89a50.57,50.57,0,0,1,3.46,7.33c1.73,4.29,3,8.77,4.76,13a2.78,2.78,0,0,0,2.65,1.93c1.34-.13,1.77-1.47,1.74-2.63a.53.53,0,0,0-1.06,0Z"/><path class="cls-15" d="M1078.51,35.46c-1.7,3.14,2.66,4.62,4.29,1.92a31.91,31.91,0,0,0,2.75-7.23c.85-2.8,1.54-5.64,2.3-8.46a78.9,78.9,0,0,1,2.49-8,4.3,4.3,0,0,1,2-2.66c.3-.15.35-.14.48.19a4.74,4.74,0,0,1,.19,1.84c-.1,5-1.69,10.14-3,14.93a108.33,108.33,0,0,1-4.31,13.4,11.92,11.92,0,0,0-.81,2.29c-.77,3.33-1.56,6.67-2.24,10a81.82,81.82,0,0,0-1.93,20.4c0,.68,1.1.69,1.07,0a77.11,77.11,0,0,1,1.57-18.49c.58-3,1.27-6.07,2-9.09a20.46,20.46,0,0,1,1.12-4.18,79.09,79.09,0,0,0,4-12.12A93.27,93.27,0,0,0,1094,14.8c.13-1.24.43-3.09-.29-4.23s-1.91-.52-2.69.15c-1.5,1.27-2,3.39-2.56,5.2-1,3-1.76,6.06-2.56,9.1a84.36,84.36,0,0,1-2.73,8.93c-.45,1.17-1,3.33-2.32,3.77s-2-.61-1.39-1.73c.33-.6-.59-1.14-.92-.53Z"/><path class="cls-15" d="M1064.58,48.43c2.65,19.94-.95,39.95-.44,59.94a113,113,0,0,0,1.6,16.62c.12.68,1.14.39,1-.28-3.49-19.77-.15-39.76-.13-59.64a125.12,125.12,0,0,0-1-16.64c-.09-.67-1.16-.68-1.07,0Z"/><path class="cls-15" d="M1065.72,124.6l-5,3.45a.55.55,0,0,0,.13,1,17,17,0,0,0,10.71-.24c.64-.23.36-1.26-.28-1a15.93,15.93,0,0,1-10.14.24l.12,1,5-3.45c.56-.39,0-1.32-.54-.92Z"/><path class="cls-15" d="M1072.28,128c.59-13.61,1.27-27.21,1.91-40.81.17-3.63.33-7.27.49-10.9,0-.69-1-.69-1.06,0-.6,13.6-1.28,27.2-1.92,40.8q-.26,5.44-.49,10.91c0,.68,1,.68,1.07,0Z"/><path class="cls-15" d="M1080.72,74.15c.76,9.27,1.15,18.55,1.51,27.84.18,4.49.38,9,.66,13.46q.25,4,.58,8c.13,1.62,0,2.53,1.79,2.88.84.17,1.72.19,2.56.4.63.15,1.16.48.49,1.25-.53.6-1.58.56-2.3.52-3.07-.17-6.15-.56-9.22-.84-.68-.06-.68,1,0,1.07,2.94.27,5.87.57,8.81.8,1.55.13,3.9-.07,4.05-2.08.13-1.59-1.55-1.78-2.73-1.94-.56-.08-1.91-.07-2.26-.57-.22-.3-.11-1.36-.15-1.74l-.18-2.4c-.72-9.65-1-19.32-1.44-29q-.39-8.86-1.1-17.71c-.06-.68-1.13-.68-1.07,0Z"/><path class="cls-15" d="M1077,128.18c.46-17.36-3.58-34.59-2.36-51.94,0-.69-1-.69-1.06,0-1.22,17.35,2.81,34.58,2.35,51.94,0,.68,1,.68,1.07,0Z"/><polygon class="cls-16" points="711.05 86.81 832.15 126.05 832.15 232.06 710.67 192.44 711.05 86.81"/><polygon class="cls-17" points="575.24 120.73 696.89 81.22 696.89 187.2 575.24 226.74 575.24 120.73"/><polygon class="cls-18" points="588.67 260.68 710.36 300.88 832.06 261.05 710.73 221.22 588.67 260.68"/><polygon class="cls-19" points="590.63 135.73 711.73 174.97 711.73 280.98 590.25 241.37 590.63 135.73"/><polygon class="cls-20" points="588.67 103.82 710.36 144.02 832.06 104.19 710.73 64.35 588.67 103.82"/><polygon class="cls-21" points="723.84 170.28 845.48 130.78 845.48 236.76 723.84 276.29 723.84 170.28"/><text class="cls-22" transform="matrix(0.8, -0.26, -0.05, 1, 389.39, 171.83)">habilidades intelectuales</text><text class="cls-22" transform="matrix(0.8, -0.26, -0.05, 1, 410.18, 178.8)">conducta adaptativa</text><text class="cls-22" transform="matrix(0.8, -0.26, -0.05, 1, 444.65, 251.43)">participación</text><text class="cls-22" transform="matrix(0.8, -0.26, -0.05, 1, 464.35, 257.57)">cont<tspan class="cls-23" x="26.61" y="0">e</tspan><tspan x="33.32" y="0">xto</tspan></text><text class="cls-22" transform="matrix(0.8, -0.26, -0.05, 1, 477.35, 300.53)">ap<tspan class="cls-24" x="14.48" y="0">oy</tspan><tspan x="28.7" y="0">o</tspan></text><text class="cls-22" transform="matrix(0.8, -0.26, -0.05, 1, 481.53, 172.64)">salud</text><path class="cls-25" d="M603.86,98.39l-13.39,4.32-1.94.63a.5.5,0,0,0,0,1l14.52,4.61,2.09.66c.61.2.88-.77.26-1L590.88,104l-2.08-.66v1L602.18,100l1.94-.63c.61-.2.35-1.16-.26-1Z"/><path class="cls-25" d="M606,140.27l-13.38-4.39-1.92-.63a.5.5,0,0,0-.63.48l.14,9.81a.5.5,0,0,0,1,0l-.14-9.81-.64.49,13.38,4.39,1.92.63c.62.2.88-.77.27-1Z"/><path class="cls-25" d="M590.28,115.3l-13.4,4.33-1.92.62a.52.52,0,0,0-.37.48v9.82a.5.5,0,0,0,1,0v-9.82l-.37.48,13.4-4.33,1.93-.62c.61-.2.34-1.16-.27-1Z"/><path class="cls-25" d="M515.41,128.78l25-8.33,39.89-13.27,9.15-3c.61-.21.35-1.17-.27-1l-25,8.33-39.89,13.27-9.15,3c-.6.2-.34,1.16.27,1Z"/><path class="cls-25" d="M603.86,255.46l-13.39,4.32-1.94.63a.51.51,0,0,0,0,1l14.52,4.6,2.09.66c.61.2.88-.77.26-1l-14.52-4.61-2.08-.66v1l13.38-4.33,1.94-.63c.61-.2.35-1.16-.26-1Z"/><path class="cls-25" d="M515.41,285.82l25-8.32,39.89-13.25,9.15-3c.61-.2.35-1.17-.27-1l-25,8.32-39.89,13.26-9.15,3c-.6.2-.34,1.17.27,1Z"/><path class="cls-25" d="M515.41,140.63l20.12-6.52,32-10.35,7.36-2.38c.61-.2.35-1.17-.27-1l-20.12,6.52-31.94,10.35-7.37,2.38c-.61.2-.35,1.17.27,1Z"/><path class="cls-25" d="M739.18,164.77l-13.4,4.33-1.92.63a.49.49,0,0,0-.37.48V180a.5.5,0,0,0,1,0v-9.81l-.37.48,13.4-4.33,1.92-.63c.61-.19.35-1.16-.26-1Z"/><path class="cls-25" d="M515.41,238.33l5.59-1.81,15.12-4.9,22.46-7.27,27.3-8.84,30-9.73L646.18,196l28.14-9.11,23.78-7.71,17.17-5.56c2.71-.87,5.45-1.68,8.13-2.63l.34-.11c.61-.2.35-1.16-.27-1l-5.58,1.81-15.13,4.9-22.46,7.27L653,192.71l-30,9.72-30.29,9.81-28.14,9.12-23.78,7.7-17.17,5.56c-2.71.88-5.45,1.68-8.12,2.63l-.35.12c-.61.19-.35,1.16.27,1Z"/><path class="cls-25" d="M515.41,228.47l8.48-2.72,23.09-7.4,34.14-10.95,41.5-13.3,45.6-14.62,45.89-14.71L757,151l36.27-11.63L819.36,131c4.1-1.31,8.22-2.59,12.3-3.94l.53-.17c.61-.2.35-1.16-.26-1l-8.49,2.72-23.08,7.4L766.22,147l-41.51,13.31-45.6,14.62-45.88,14.71-42.92,13.76L554,215,528,223.39c-4.1,1.32-8.21,2.6-12.3,4l-.53.16c-.61.2-.35,1.17.27,1Z"/><path class="cls-25" d="M515.41,160.46l25.6-8.24,40.46-13,9.25-3c.61-.2.35-1.17-.27-1l-25.6,8.24-40.46,13-9.25,3c-.61.2-.35,1.16.27,1Z"/><path class="cls-25" d="M816.63,121.54,830,125.76l1.92.6-.37-.48-.14,9.8a.5.5,0,0,0,1,0l.14-9.8a.5.5,0,0,0-.37-.48l-13.38-4.22-1.92-.6c-.61-.19-.88.77-.26,1Z"/><path class="cls-14" d="M744.48,91.44c-1.52.47-3-.68-4.54-1.11a10.25,10.25,0,0,0-2.88-.28c-5.62-.1-11.16-1.27-16.66-2.45-2.26-.49-4.84-1.2-5.82-3.3a7,7,0,0,1-.46-2.88,51.46,51.46,0,0,1,1.65-13.7l0-.2c-2.76-.07-5.49-.26-8.23-.56l-.35-1.18q-1.24,11.37-2.47,22.72a2.24,2.24,0,0,1-.39,1.26,2.13,2.13,0,0,1-1.36.55,14.19,14.19,0,0,1-8.19-1.51c-.27-.15-.58-.38-.55-.69a.84.84,0,0,1,.3-.41A5.06,5.06,0,0,1,698,86.44c.37,0,.85,0,1.06-.3a1,1,0,0,0,.06-.72,82,82,0,0,1-.69-18.12l.13-.55a17.71,17.71,0,0,1-1.87.57c-2.64-.82.9-4,2.53-5.7.22-.23.44-.44.68-.66l3-12.87-3.11,12.42a48.49,48.49,0,0,1-6.3,2.9c-.62.23-1.43.42-1.91-.06-.64-.66,0-1.73.61-2.39a40.7,40.7,0,0,0,5.93-7.12,34,34,0,0,0,1.95-4l3.36-7.64c.57-1.31,1.16-2.64,1.74-4l.27-1.2c-3.54-2.72-6.58-7.5-4.53-11.49,1.73-3.34,7-4,9.54-1.26,2,2.16,2.07,5.38,2.84,8.2a35.89,35.89,0,0,0,3.67,7.78,129.41,129.41,0,0,1,7,14.75,22.46,22.46,0,0,1,2,7.44c.23,6.45-4.59,12.32-4.17,18.77l.11.46c4.84,1.28,9.47,3.38,14.47,3.75a8.39,8.39,0,0,1,2.45.41,6.85,6.85,0,0,1,1.55,1A21.14,21.14,0,0,1,744.48,91.44Z"/><path class="cls-14" d="M702,47.78a2.31,2.31,0,0,0-.56,1.42,15.27,15.27,0,0,1-1.18,2.95,36.53,36.53,0,0,0-1.8,5.38,3.54,3.54,0,0,0-.2,1.6,2.44,2.44,0,0,0,1.25,1.58,1.82,1.82,0,0,0,.67.25,1.58,1.58,0,0,0,1.14-.32,3.43,3.43,0,0,0,.81-.89,14.29,14.29,0,0,0,2-6.18,19.22,19.22,0,0,0,.24-3.3,3.6,3.6,0,0,0-.93-2.65,1,1,0,0,0-.6-.31.58.58,0,0,0-.58.26"/><path class="cls-15" d="M712.4,42.29,712.25,49a25,25,0,0,1-.57,6.28c-.6,2.14-2.09,3.45-3.71,4.84s-3.1,2.67-4.77,3.84a20.59,20.59,0,0,1-5.09,2.66c-.65.23-2.05.8-1.79-.41a4.77,4.77,0,0,1,1.21-1.81A35.41,35.41,0,0,1,700.89,61a15.7,15.7,0,0,0,3.65-3.85c2.08-3.66,1.2-8.15,2.58-12,.23-.65-.8-.93-1-.28-1.48,4.17-.28,9.38-3.3,12.94-1.34,1.58-3.09,2.79-4.54,4.26a11.71,11.71,0,0,0-2.88,3.62,1.65,1.65,0,0,0,1,2.36,4.76,4.76,0,0,0,2.39-.55,20.19,20.19,0,0,0,3-1.39,35,35,0,0,0,5.07-3.65A24.3,24.3,0,0,0,711.59,58c1.36-2,1.59-4.45,1.67-6.79.1-3,.14-5.93.2-8.9a.53.53,0,0,0-1.06,0Z"/><path class="cls-15" d="M705.08,37.32l-4.82,11a34.39,34.39,0,0,1-5.75,9.64,31.45,31.45,0,0,0-3.27,3.57,1.9,1.9,0,0,0,0,2.56c1,.86,2.58,0,3.62-.4A51.29,51.29,0,0,0,700,61.22c.6-.33.06-1.25-.54-.92-1.36.73-2.74,1.41-4.16,2a18.17,18.17,0,0,1-2.35.92l-.54.11-.46-1c0-.32.66-.88.86-1.09a48.24,48.24,0,0,0,5.36-6.33,58.9,58.9,0,0,0,3.87-8.14L706,37.85c.27-.62-.65-1.16-.92-.53Z"/><path class="cls-15" d="M697.87,67.54a86,86,0,0,0,0,12.84c.09,1.07.2,2.14.34,3.22,0,.39.1.78.16,1.18a4.08,4.08,0,0,1,.09.61l-.24.76h-.49c-1.29.27-3.16.4-3.94,1.71-1.54,2.58,6.94,3.37,8.26,3.3,1.5-.09,2.76-.36,3.07-2,.43-2.27.51-4.65.76-6.94L707.68,66c.08-.68-1-.67-1.06,0l-1.31,12.09-.65,6-.32,2.9c-.05.49-.09,1-.16,1.45a2.49,2.49,0,0,1-.11.78,2,2,0,0,1-1.55.78,13.69,13.69,0,0,1-5.5-.63,8.56,8.56,0,0,1-1.63-.66c-.55-.32-.65-.43,0-.82a5.24,5.24,0,0,1,2.76-.73c1.1,0,1.63-.57,1.48-1.71-.24-1.86-.5-3.7-.64-5.57a84.14,84.14,0,0,1,0-12.4c0-.68-1-.68-1.07,0Z"/><path class="cls-15" d="M707.5,67.75q4.11.44,8.23.54l-.53-.54a15.07,15.07,0,0,1-.69,3.33q-.28,1.48-.48,3a51.54,51.54,0,0,0-.47,7.13c0,1.75.12,3.52,1.4,4.85a8.6,8.6,0,0,0,4.08,2,95.6,95.6,0,0,0,13.21,2.42c1.12.13,2.24.22,3.36.28a25.07,25.07,0,0,1,3.78.2c1.82.37,3.28,1.65,5.22,1.21a.53.53,0,0,0,.32-.78,21.8,21.8,0,0,0-4.23-4.66,8,8,0,0,0-4.82-1.6c-4.79-.47-9.27-2.46-13.88-3.71l.37.37c-.64-2.76.65-6,1.57-8.6a37.48,37.48,0,0,0,2.43-8.52c.36-3.34-.67-6.49-1.9-9.54s-2.65-6.25-4.16-9.29-3.33-6.08-4.91-9.18a21.8,21.8,0,0,1-1.83-4.8c-.35-1.51-.56-3.05-1-4.52a6.77,6.77,0,0,0-4.42-4.8,7.08,7.08,0,0,0-5.88,1c-5.49,3.84-1.09,11.1,2.8,14.16.54.42,1.3-.33.76-.75A13.18,13.18,0,0,1,701,30.53c-.71-2.47,0-5.2,2.35-6.46a5.69,5.69,0,0,1,6.34.56c2,1.81,2.21,4.87,2.77,7.34a29.41,29.41,0,0,0,3.4,7.85c1.52,2.71,3,5.45,4.31,8.25s2.69,5.84,3.81,8.85a16.3,16.3,0,0,1,1.06,9.17,71.75,71.75,0,0,1-2.7,8.34c-.76,2.34-1.61,5.2-1,7.67a.56.56,0,0,0,.38.37c4.08,1.11,8,2.77,12.22,3.48,2.11.36,4.25.14,6,1.55A20.64,20.64,0,0,1,744,92l.32-.79c-1.76.41-3.46-1.07-5.19-1.29-2-.26-4-.15-5.92-.34a107.57,107.57,0,0,1-12.85-2.24,9.13,9.13,0,0,1-4.52-1.9c-1.53-1.48-1.24-3.94-1.19-5.88a52.34,52.34,0,0,1,.6-6.5c.16-1,.35-2,.57-3.05a8.1,8.1,0,0,0,.44-2.21.54.54,0,0,0-.53-.53q-4.12-.1-8.23-.54c-.68-.07-.68,1,0,1.07Z"/><path class="cls-26" d="M65.69,123.71l12.11-3.93,29.08-9.44L142,98.92l30.38-9.87,10-3.23c1.57-.51,3.23-.91,4.76-1.54a1.29,1.29,0,0,1,.21-.07l-3.17-2.41V183.44c0,1.36-.13,2.79,0,4.15a1.08,1.08,0,0,1,0,.18l1.84-2.41L173.9,189.3l-29.08,9.45-35.16,11.43-30.38,9.87-10,3.23c-1.57.51-3.23.92-4.76,1.55-.06,0-.14,0-.21.07l3.17,2.41v-92.9c0-4.3.16-8.63,0-12.93v-.18c0-3.22-5-3.22-5,0v92.9c0,4.29-.16,8.63,0,12.92v.19a2.52,2.52,0,0,0,3.16,2.41l12.11-3.94,29.08-9.45L142,204.91,172.42,195c4.9-1.59,9.85-3.07,14.71-4.78l.21-.07a2.56,2.56,0,0,0,1.83-2.41V94.86c0-4.28.17-8.6,0-12.88V81.8A2.51,2.51,0,0,0,186,79.39L173.9,83.32l-29.08,9.44-35.16,11.42L79.28,114c-4.9,1.59-9.84,3.08-14.71,4.78l-.21.07C61.32,119.88,62.62,124.71,65.69,123.71Z"/><path class="cls-27" d="M77.8,258.12l12.16,4,29.18,9.64,35.14,11.61,30.41,10c4.86,1.61,9.7,3.48,14.63,4.84a5.67,5.67,0,0,0,3.35-.55l7.55-2.47,27.59-9,35.09-11.48,31.54-10.33,17.29-5.66.8-.26a2.52,2.52,0,0,0,0-4.82l-12.18-4-29.21-9.59L246,228.55l-30.22-9.93-9.88-3.24c-1.51-.49-3-1.08-4.56-1.49-1.2-.33-2.3.21-3.42.57l-7.66,2.48-27.75,9-35,11.33L95.9,247.45l-17.3,5.6-.8.25c-3,1-1.74,5.82,1.33,4.82l12.17-3.93,29.21-9.44,35.19-11.39,30.44-9.84,10-3.24c1.58-.51,3.28-.91,4.81-1.56a1.29,1.29,0,0,1,.21-.06h-1.33l12.1,4,28.95,9.5,35,11.5,30.37,10,10,3.29c1.55.51,3.12,1.15,4.71,1.54l.21.07v-4.82l-12.09,4-29,9.51-35.25,11.53-30.37,9.94-10,3.28c-1.56.51-3.24.91-4.75,1.56l-.21.06h1.33l-12.08-4-29-9.59-35.25-11.64-30.37-10c-4.9-1.62-9.79-3.49-14.76-4.88l-.21-.07C76.07,252.29,74.76,257.12,77.8,258.12Z"/><path class="cls-28" d="M78.05,132.3l12,3.89,29,9.4,35,11.32,30.22,9.79,10,3.23c1.56.51,3.14,1.14,4.73,1.54a1.66,1.66,0,0,1,.21.06l-1.83-2.41V270.81c0,1.36-.12,2.78,0,4.14v.18l3.16-2.41-12.12-4-29-9.45-35-11.43L93.93,238l-10-3.26c-1.56-.51-3.13-1.15-4.72-1.54l-.21-.07,1.84,2.41,0-10.54L81,199.8l.11-30.46.09-26.45c0-4.26.19-8.55,0-12.82a1.08,1.08,0,0,1,0-.18c0-3.22-5-3.22-5,0l0,10.54-.09,25.18L76,196.07l-.09,26.44c0,4.26-.22,8.57,0,12.82v.19a2.56,2.56,0,0,0,1.83,2.41l12.13,3.95,29,9.45,35,11.43,30.4,9.92c4.89,1.59,9.77,3.42,14.72,4.8l.21.06a2.52,2.52,0,0,0,3.17-2.41v-92.9c0-4.29.18-8.63,0-12.92a1.21,1.21,0,0,1,0-.19,2.57,2.57,0,0,0-1.84-2.41l-12-3.89-29-9.4-35-11.32-30.22-9.79c-4.88-1.58-9.75-3.4-14.7-4.76l-.21-.07C76.31,126.48,75,131.31,78.05,132.3Z"/><path class="cls-29" d="M199.82,83.76l12,3.9,29,9.39,35,11.33L306,118.17l10,3.23c1.56.5,3.14,1.14,4.74,1.53l.21.07-1.84-2.41V222.27c0,1.37-.12,2.79,0,4.14a1.21,1.21,0,0,1,0,.19l3.17-2.41-12.13-3.95-29-9.45-35-11.43-30.4-9.91-10-3.27c-1.55-.51-3.12-1.14-4.71-1.54l-.21-.06L202.6,187l0-10.54.09-25.19.11-30.45.09-26.45c0-4.26.19-8.56,0-12.82v-.19c0-3.21-5-3.22-5,0l0,10.55-.09,25.18-.11,30.46L197.65,174c0,4.26-.21,8.56-.05,12.82a1.21,1.21,0,0,1,0,.19,2.57,2.57,0,0,0,1.84,2.41l12.12,3.95,29,9.45,35,11.43L306,224.14c4.89,1.6,9.77,3.43,14.73,4.8l.21.07a2.52,2.52,0,0,0,3.16-2.41V133.7c0-4.29.19-8.63,0-12.93v-.18a2.56,2.56,0,0,0-1.83-2.41l-12-3.9-29-9.39-35-11.33-30.21-9.79c-4.89-1.58-9.76-3.4-14.71-4.76l-.21-.07C198.08,78,196.76,82.78,199.82,83.76Z"/><path class="cls-30" d="M77.74,105.29l12.16,4,29.18,9.64,35.14,11.61,30.41,10c4.86,1.6,9.7,3.47,14.63,4.83,1.19.33,2.24-.18,3.35-.55l7.55-2.47,27.59-9,35.08-11.48,31.55-10.33,17.29-5.66.79-.26a2.52,2.52,0,0,0,0-4.82l-12.18-4-29.21-9.59L246,75.71l-30.23-9.92-9.87-3.24c-1.51-.5-3-1.09-4.56-1.5-1.2-.32-2.3.21-3.43.57L190.2,64.1l-27.74,9-35,11.33L95.84,94.61l-17.3,5.6-.8.26c-3,1-1.74,5.81,1.33,4.82l12.17-3.94,29.2-9.44,35.2-11.38,30.43-9.84,10.05-3.25c1.58-.51,3.27-.91,4.8-1.56l.21-.06H199.8l12.11,4,29,9.51,35,11.49,30.36,10,10,3.28c1.55.51,3.12,1.15,4.71,1.54l.21.07v-4.82l-12.09,4-29,9.5-35.25,11.54-30.36,9.94-10,3.27c-1.56.51-3.24.91-4.75,1.56l-.21.07h1.33l-12.09-4-29-9.58-35.24-11.65L94,105.41c-4.9-1.62-9.79-3.49-14.76-4.88l-.21-.06C76,99.45,74.69,104.28,77.74,105.29Z"/><path class="cls-31" d="M214.44,167.25l12.11-3.93,29.08-9.44,35.16-11.42,30.38-9.87,9.95-3.23c1.57-.51,3.23-.91,4.76-1.54l.21-.07-3.17-2.41V227c0,1.36-.12,2.79,0,4.15a1.2,1.2,0,0,1,0,.19l1.84-2.42-12.11,3.94-29.08,9.45-35.16,11.43L228,263.59l-9.94,3.23c-1.57.51-3.24.92-4.77,1.55l-.2.07,3.16,2.41V178c0-4.3.16-8.63,0-12.93v-.18c0-3.22-5-3.22-5,0v92.9c0,4.3-.16,8.63,0,12.92v.19a2.52,2.52,0,0,0,3.16,2.41l12.11-3.93,29.08-9.45,35.16-11.43,30.38-9.88c4.9-1.59,9.85-3.07,14.71-4.78l.21-.06a2.58,2.58,0,0,0,1.83-2.41V138.4c0-4.28.17-8.6,0-12.88v-.18a2.51,2.51,0,0,0-3.16-2.41l-12.11,3.93-29.08,9.44-35.16,11.42L228,157.59c-4.9,1.59-9.84,3.07-14.71,4.77l-.2.07C210.07,163.42,211.37,168.25,214.44,167.25Z"/><path class="cls-14" d="M273.48,250.27l-2.16,1.46-8.37.6-2-.91v-.92l2.75-1.17,1.22-.36-2.74-3.11-6.41-6-6.53-6.44-3.68-8.92-2.63-11.33c2.9,16.39,3.36,31.84,4.06,47.31a3.59,3.59,0,0,1-1.26,3.07,4.07,4.07,0,0,1-2.47.51c-1.88,0-3.74-.16-5.61-.38-.87-.1-3.12-.62-2.87-1.46.17-.61,2.05-.75,2.68-.78,1.34-.08,1.82-.43,3.16-.51a55.75,55.75,0,0,0-.49-15.48c-3.13-17.61-6.12-35.37-5.85-53.27l0-.27A30.15,30.15,0,0,1,226,205c-2.31,2.12-5.4,4-8.44,3.16-.46-.12-1-.41-1-.88a1.42,1.42,0,0,1,.53-1c3.05-3,6.28-5.9,8.34-9.63,1.85-3.33,2.66-7.12,3.87-10.73s3-7.25,6.1-9.42c-2.14-1.39-3.29-3.91-3.84-6.41s-.48-5.52,1.43-7.27c2.4-2.19,6.67-1,8.33,1.79s1.15,6.46-.41,9.32l.11.06,4.59,1.81a4.47,4.47,0,0,0,1.72.41c1.9-.06,2.81-2.35,3.1-4.24,1-6.69.15-13.54.91-20.26.12-1.09.54-2.43,1.63-2.53a1.86,1.86,0,0,1,1.65,1,7.06,7.06,0,0,1,.79,3,151.63,151.63,0,0,1,.59,25.3,4.25,4.25,0,0,1-.39,1.84,3.88,3.88,0,0,1-2.43,1.59,14.82,14.82,0,0,1-4.73.56l-.26.7,1.41,20.69L252,220.72l.67,4.56,2,4.34,3.68,4.81,10.42,10.47,2.73,2.34,1.76.63Z"/><path class="cls-15" d="M246.16,182.72a14.76,14.76,0,0,0,7.85-.56c2.3-.9,2.45-2.7,2.56-4.9a152.37,152.37,0,0,0-.15-18.26c-.1-1.46-.22-2.92-.36-4.37a15.87,15.87,0,0,0-.62-3.88c-.51-1.38-2.05-2.85-3.52-1.7s-1.33,4.3-1.41,6c-.14,3.06-.07,6.13-.11,9.19s.13,6.59-1,9.42a3.52,3.52,0,0,1-1.24,1.72,2.7,2.7,0,0,1-2.44-.13,30.6,30.6,0,0,1-4.57-1.81l.19.73c1.57-3,2.25-6.83.42-9.86a6.69,6.69,0,0,0-7.08-3c-3.12.79-4.18,4.11-4,7,.26,3.28,1.59,6.71,4.37,8.64V176c-3.79,2.73-5.55,7.1-6.89,11.42a57.18,57.18,0,0,1-2.67,7.75,25.43,25.43,0,0,1-4.61,6.47c-.87.94-1.79,1.84-2.71,2.74-.67.65-1.82,1.42-2.14,2.34-.67,1.89,2.31,2.19,3.46,2.1,4.49-.33,8.18-4.4,10.69-7.78a31.27,31.27,0,0,0,5.84-14.7c.09-.68-1-.67-1.07,0a29.88,29.88,0,0,1-4.12,11.82c-2.14,3.53-5.29,7.46-9.22,9.05a6.52,6.52,0,0,1-3.23.52c-.72-.09-1.51-.2-1-1.11a8.76,8.76,0,0,1,1.38-1.34,58.68,58.68,0,0,0,4.42-4.64c2.77-3.34,4.25-7.13,5.49-11.25,1.38-4.56,2.85-9.55,6.91-12.47a.54.54,0,0,0,0-.92c-2.35-1.63-3.5-4.6-3.81-7.36-.28-2.48.33-5.63,3.13-6.33a5.58,5.58,0,0,1,6,2.7c1.5,2.69.86,6-.51,8.61a.56.56,0,0,0,.19.73,20.57,20.57,0,0,0,2.53,1,15.12,15.12,0,0,0,3.72,1.31,3.38,3.38,0,0,0,3.36-2.25c.91-1.92,1-4.26,1.11-6.34.16-2.57.15-5.15.15-7.73a80.25,80.25,0,0,1,.31-8.21,5.46,5.46,0,0,1,.3-1.55c.11-.26.31-.75.59-.83a1.55,1.55,0,0,1,1.45.66c.72,1.09.71,2.65.83,3.91a151.18,151.18,0,0,1,.74,16.06c0,1.54,0,3.08-.1,4.63a22.2,22.2,0,0,1-.28,4.39c-.38,1.58-2.26,2-3.65,2.24a14.53,14.53,0,0,1-5.22,0c-.67-.12-1,.91-.29,1Z"/><path class="cls-15" d="M247.62,182.43a391.55,391.55,0,0,0,4.07,40,21.11,21.11,0,0,0,2.84,8,42.77,42.77,0,0,0,5.57,6.66c2.34,2.41,4.77,4.75,7.16,7.11a39.2,39.2,0,0,0,3.08,3c.9.72,3.15,1.14,2.74,2.69-.51,1.87-3.8,1.58-5.24,1.73a28,28,0,0,1-5.14.53c-.76-.07-2-.68-1.34-1.51a3.19,3.19,0,0,1,1.33-.65,10.94,10.94,0,0,0,2.25-.8.53.53,0,0,0-.54-.92c-1.25.75-3.49.62-4.18,2.15a1.82,1.82,0,0,0,.55,2.07c1,.92,2.46.73,3.7.6,1.74-.18,3.46-.41,5.21-.55,1.34-.1,2.9-.28,3.85-1.35a2.51,2.51,0,0,0,.56-2.42c-.4-1.19-1.66-1.53-2.65-2.09a11.07,11.07,0,0,1-2.06-1.87l-2-2-4.1-4a58.14,58.14,0,0,1-7.44-8.32c-2.06-3-2.83-6.4-3.34-10q-.81-5.75-1.46-11.51-1.51-13.2-2.31-26.46c0-.68-1.11-.69-1.07,0Z"/><path class="cls-15" d="M233.75,192.15c-.24,18.1,2.87,35.89,5.92,53.66a57.76,57.76,0,0,1,.43,15.09l.53-.53c-1.74.1-3.94-.06-5.52.8-1.18.63-1,1.73.11,2.33,1.66.91,3.89.86,5.71,1s4.44.56,5.76-1.14.77-4.52.68-6.59q-.18-4.06-.37-8.13c-.27-5.56-.6-11.12-1.09-16.66-.56-6.35-1.35-12.67-2.45-18.95-.12-.67-1.15-.39-1,.29a250.69,250.69,0,0,1,3.08,27.61c.27,4.35.47,8.7.67,13,.09,2.21.32,4.46.28,6.67a2.65,2.65,0,0,1-1.68,2.76,9.79,9.79,0,0,1-3.15.06c-1.25-.06-2.5-.14-3.74-.3-.51-.06-2.13-.2-2.38-.72s1.43-.72,1.89-.75c1.07-.1,2.15-.17,3.23-.24a.56.56,0,0,0,.54-.53,59.64,59.64,0,0,0-.1-12.88c-.56-4.41-1.49-8.79-2.23-13.17-1.51-9-2.82-18.09-3.51-27.22-.4-5.15-.58-10.31-.51-15.48a.54.54,0,0,0-1.07,0Z"/><path class="cls-15" d="M243.27,218.25c1.6,6.16,3.33,12.56,7.54,17.51,4,4.71,9.74,7.75,12.9,13.18a.53.53,0,0,0,.92-.54c-3-5.18-8.3-8.23-12.3-12.53-4.59-4.94-6.38-11.54-8-17.9a.53.53,0,0,0-1,.28Z"/><path class="cls-15" d="M261,157.49a7.44,7.44,0,0,1,2.76,6.89.56.56,0,0,0,.37.65.54.54,0,0,0,.66-.37,8.53,8.53,0,0,0-3-7.93.54.54,0,0,0-.75,0,.54.54,0,0,0,0,.76Z"/><path class="cls-15" d="M264.51,156.13c1.3,1,1.58,2.76,1.84,4.23a.54.54,0,0,0,.66.38.55.55,0,0,0,.37-.66c-.32-1.82-.76-3.71-2.33-4.87a.54.54,0,0,0-.73.19.55.55,0,0,0,.19.73Z"/><path class="cls-15" d="M218.82,213.64a7.16,7.16,0,0,0,2.2.38,7.48,7.48,0,0,0,2.31-.18,7.08,7.08,0,0,0,3.21-2.44c.44-.52-.31-1.28-.76-.75a6.22,6.22,0,0,1-2.73,2.17,6.84,6.84,0,0,1-2,.13,6.27,6.27,0,0,1-2-.34c-.65-.24-.93.79-.29,1Z"/><path class="cls-15" d="M220.07,217a5,5,0,0,0,3.43-.12,5,5,0,0,0,2.73-1.71.54.54,0,0,0-.19-.73.55.55,0,0,0-.73.19,3.88,3.88,0,0,1-2.09,1.22c-.43.12-.87.21-1.31.29a2.21,2.21,0,0,1-1.3-.06.54.54,0,0,0-.73.19.54.54,0,0,0,.19.73Z"/></g></svg>